<svg xmlns="http://www.w3.org/2000/svg" viewBox="0 0 2383.37 2521.86"><defs><style>.cls-1{fill:#ffd243;}.cls-2{opacity:0.6;}.cls-3{fill:#fff;}.cls-4{fill:#ff9d33;}.cls-5{fill:#371a45;}.cls-6{opacity:0.25;}.cls-7{opacity:0.35;}.cls-8{fill:#22a7f0;}.cls-9{fill:#c1cbd6;}.cls-10{fill:#ffb200;}.cls-11{fill:#ff9100;}.cls-12{fill:#d66b09;}.cls-13{fill:#ffd766;}.cls-14{fill:#ffaa39;}.cls-15{fill:#ffcf6e;}.cls-16{fill:#ffec90;}.cls-17{fill:#220f2d;}.cls-18{opacity:0.5;}.cls-19{fill:#6b46c1;}</style></defs><g id="Layer_2" data-name="Layer 2"><g id="Layer_1-2" data-name="Layer 1"><path class="cls-1" d="M20.52,1690.87c111.31,324.45,359.65,599.5,704.38,733.25,620.71,240.8,1319.2-67.12,1560-687.87,61.21-157.64,87-320.36,81.17-479.22a1211.39,1211.39,0,0,0-310.6-765.53c-42.82-47.41-121.85-15.83-120.29,48A1192,1192,0,0,1,1921.08,753a1207.47,1207.47,0,0,1-65.45,245.3c-.62,1.88-1.41,3.74-2.11,5.63q-16.39,42.39-35.7,82.68c-7.71,16.39-15.87,32.48-24.33,48.36-3.9,7.41-7.94,14.7-12,22a1184.74,1184.74,0,0,1-64.3,102.77A1205.58,1205.58,0,0,1,1638.73,1360q-31.29,36-65.27,69.21-30.87,30.18-63.75,58l-4.7,4c-15.11,12.64-30.61,25-46.29,36.86-5.94,4.56-12,9-18,13.41-5.57,4.11-11.23,8.19-16.9,12.14q-28.3,19.92-57.75,38.15c-3.66,2.28-7.36,4.56-11.1,6.81-1.73,1.11-3.43,2.09-5.16,3.11-2.44,1.51-4.89,2.93-7.38,4.4-11.63,6.86-23.37,13.56-35.29,20-21.94,11.93-44.22,23.27-66.9,33.81-5.34,2.52-10.65,4.94-16,7.33q-34.48,15.61-70.08,29c-3.86,1.47-7.79,2.94-11.78,4.34q-54.4,19.88-110.7,34.45c-6.69,1.8-13.39,3.44-20.1,5.08-12.07,3-24.16,5.61-36.31,8.19-17.29,3.59-34.6,6.84-52.08,9.65q-19.65,3.26-39.39,5.81-28.44,3.74-57.1,6c-12.9,1.07-25.9,1.94-38.89,2.57q-15.31.75-30.63,1.08-24.93.62-49.95.11-55.89-1-112.11-7.32c-15.32-1.74-30.57-3.78-45.89-6.07a1207.2,1207.2,0,0,1-255.74-68.33,1222.78,1222.78,0,0,1-115.7-52c-19.45-10-38.54-20.46-57.24-31.33C65.14,1576-.32,1630.23,20.52,1690.87Z"/><g class="cls-2"><path class="cls-3" d="M2004.94,607.16a1153.85,1153.85,0,0,1-15.24,213.61,1180.72,1180.72,0,0,1-68.56,245.58c-.65,1.89-1.47,3.75-2.2,5.64q-17.12,42.45-37.24,82.82c-8,16.41-16.53,32.54-25.34,48.44-4.07,7.43-8.27,14.74-12.53,22a1189.05,1189.05,0,0,1-66.91,103,1219.78,1219.78,0,0,1-81.55,100.57q-32.5,36.12-67.81,69.45-32.07,30.27-66.19,58.2c-1.64,1.36-3.25,2.66-4.89,4-15.68,12.7-31.78,25.11-48,37-6.17,4.58-12.43,9-18.71,13.47-5.78,4.13-11.65,8.23-17.53,12.2q-29.37,20-59.93,38.34-5.68,3.43-11.52,6.84c-1.79,1.12-3.55,2.11-5.35,3.14-2.53,1.51-5.07,2.94-7.65,4.42-12.07,6.9-24.24,13.63-36.61,20.1-22.76,12-45.87,23.41-69.39,34-5.54,2.53-11,5-16.59,7.39q-35.76,15.72-72.67,29.18c-4,1.48-8.08,3-12.21,4.37q-56.4,20.07-114.74,34.82c-6.94,1.82-13.89,3.48-20.84,5.14-12.5,3-25,5.69-37.62,8.31-17.91,3.64-35.86,7-54,9.82q-20.34,3.32-40.8,5.94-29.47,3.81-59.15,6.21c-13.37,1.11-26.83,2-40.28,2.69q-15.87.79-31.73,1.18-25.82.69-51.72.27-57.88-.8-116.08-7c-15.85-1.69-31.64-3.68-47.5-5.92a1283,1283,0,0,1-384.26-119.16c-20.12-9.91-39.85-20.35-59.19-31.16-36.53-20.55-77.39-5.8-96.65,23.29-1.73-4.86-3.54-9.7-5.22-14.59-20.84-60.64,44.62-114.83,100-82.46,18.7,10.87,37.79,21.37,57.24,31.33a1222.78,1222.78,0,0,0,115.7,52,1207.2,1207.2,0,0,0,255.74,68.33c15.32,2.29,30.57,4.33,45.89,6.07q56.25,6.36,112.11,7.32,25,.49,49.95-.11,15.3-.32,30.63-1.08c13-.63,26-1.5,38.89-2.57q28.64-2.25,57.1-6,19.77-2.58,39.39-5.81c17.48-2.81,34.79-6.06,52.08-9.65,12.15-2.58,24.24-5.24,36.31-8.19,6.71-1.64,13.41-3.28,20.1-5.08q56.21-14.49,110.7-34.45c4-1.4,7.92-2.87,11.78-4.34q35.55-13.39,70.08-29c5.35-2.39,10.66-4.81,16-7.33,22.68-10.54,45-21.88,66.9-33.81,11.92-6.42,23.66-13.12,35.29-20,2.49-1.47,4.94-2.89,7.38-4.4,1.73-1,3.43-2,5.16-3.11,3.74-2.25,7.44-4.53,11.1-6.81q29.39-18.27,57.75-38.15c5.67-3.95,11.33-8,16.9-12.14,6-4.4,12.08-8.85,18-13.41,15.68-11.87,31.18-24.22,46.29-36.86l4.7-4q32.91-27.73,63.75-58,33.9-33.24,65.27-69.21a1205.58,1205.58,0,0,0,78.43-100.29,1184.74,1184.74,0,0,0,64.3-102.77c4.09-7.26,8.13-14.55,12-22,8.46-15.88,16.62-32,24.33-48.36q19.25-40.35,35.7-82.68c.7-1.89,1.49-3.75,2.11-5.63A1207.47,1207.47,0,0,0,1921.08,753a1192,1192,0,0,0,14.06-213.51c-1.56-63.81,77.47-95.39,120.29-48q20.75,23,40.2,46.91C2052.93,527.4,2003.85,557.64,2004.94,607.16Z"/></g><path class="cls-4" d="M20.51,1690.93c111.34,324.42,359.64,599.4,704.41,733.2,620.65,240.8,1319.14-67.17,1559.94-687.82,61.22-157.69,86.95-320.41,81.13-479.33a1205.06,1205.06,0,0,0-81-392.58,1199.94,1199.94,0,0,1,18.26,169.48c5.81,158.95-19.91,321.63-81.14,479.36-143.63,370.24-450.18,629.22-805.89,726.75a124.46,124.46,0,0,0,1.86-57.64c-18.91-92.35-139-151-268.14-131s-218.57,111.11-199.65,203.47a124.1,124.1,0,0,0,5.74,19.67A1207.16,1207.16,0,0,1,662.16,2201c-285.25-110.7-504.44-318-634.67-570C16.8,1647.55,12.91,1668.79,20.51,1690.93Z"/><ellipse class="cls-4" cx="2056.22" cy="1173.6" rx="135.8" ry="115.84" transform="translate(-51.61 2251.77) rotate(-56.81)"/><ellipse class="cls-4" cx="1514.13" cy="1672.8" rx="161.26" ry="100.43" transform="translate(-741.88 1637.33) rotate(-46.95)"/><ellipse class="cls-1" cx="1538.96" cy="1693.33" rx="140.73" ry="63.28" transform="translate(-749 1661.98) rotate(-46.95)"/><ellipse class="cls-1" cx="2105.43" cy="1172.85" rx="102.04" ry="82.33" transform="translate(381.48 2857.01) rotate(-73.45)"/><path class="cls-1" d="M1972.8,1754.22a129.6,129.6,0,0,1,25.62,22.5c54.12,61.75,39.58,161-32.48,221.63-54.15,45.53-125.35,56.4-180.31,32.82Z"/><path class="cls-5" d="M1975.62,1750c57.72,29.89,80.73,105.51,61,166.42-24.28,81.74-108,141.52-193.17,135.28a148.51,148.51,0,0,1-59.39-16.78,4.1,4.1,0,0,1,3.22-7.51c37,11.53,76.4,9,111.31-4.05,85.75-30.21,149.59-134.68,106.22-221.21a133.85,133.85,0,0,0-34.78-43.72c-4.69-3.73.38-11.33,5.63-8.43Z"/><path class="cls-1" d="M930.77,2092.82c-28.37,32-45.75,69.59-48.1,110.12-4.26,73.45,41.78,135.47,116.05,177.34,48.72,27.47,109.6,44.45,176.37,46.07,168.57,4.09,310.94-91.2,318-212.83,2.63-45.26-13.85-87.8-44.26-123.57-51.32-60.38-142.32-97.27-248.16-99.84Z"/><path class="cls-5" d="M2160.19,1246.37c-63.42,109-223.52,102.85-245.73-32-17-110.07,99.47-226.52,208.28-176.51a108.86,108.86,0,0,1,48.92,47.37c3.63,6.65,5.89,13.86,8.44,20.8a4.65,4.65,0,0,1-2.76,6,4.75,4.75,0,0,1-6-2.65c-11.51-24.09-31.16-44.49-56.51-53.62-76.84-28.65-158.56,41-169,116.34-13.86,86.4,57.19,149,140.52,115.85,24.69-9.62,46.68-26.74,64.24-48.06,4.48-5.51,13.07.47,9.56,6.56Z"/><path class="cls-5" d="M2095.73,984.41c60-3.76,119.31,33.82,144.62,88.49,26.9,54.51,23.26,120.35-.93,174.92-24.18,54.4-68.42,100.43-124.1,122.49-54.16,22.87-122,18.87-168-19.11-4.38-3.7.44-10.53,5.36-7.64a156,156,0,0,0,76.3,20.73c127.24-.24,227.26-141.18,192.72-261.8-16.43-58.3-65.56-100-126.4-106.5-7-.78-6.63-11.24.39-11.58Z"/><path class="cls-4" d="M1818.4,1981.55c32.25,14.24,74.64,6.27,107.42-23.57,43.63-39.74,53.7-103.25,22.5-141.85a73.92,73.92,0,0,0-14.86-14c-59.89-44.41-123.16-9.9-153.63,33.52C1745.39,1884.75,1748.78,1947.34,1818.4,1981.55Z"/><path class="cls-1" d="M1825.13,1979c32.26,14.24,74.65,6.27,107.42-23.57,43.63-39.74,53.7-103.24,22.51-141.85a73.71,73.71,0,0,0-14.87-14c-27.94-.48-58,10.77-83,33.53C1812.89,1873.51,1800,1936.13,1825.13,1979Z"/><path class="cls-5" d="M1796.8,1808c86.89-83.41,222.86-8.19,174.27,109.85-29.4,68.57-125.5,104.42-185.49,54.08-18.73-15.94-30.08-39.61-30.77-63-.15-5,7.11-5.77,8.11-1,8.32,42.45,48.56,69.08,90.18,65.08,59.08-4,113.14-63.09,98.67-122.54-17.84-65.68-99.33-70.59-148.45-34.66-5,3.6-10.89-3.51-6.52-7.76Z"/><ellipse class="cls-4" cx="1187.45" cy="2206.9" rx="231.91" ry="168.55" transform="translate(-218.7 132.49) rotate(-5.85)"/><ellipse class="cls-1" cx="1214.42" cy="2247.02" rx="196.59" ry="123.96" transform="translate(-389.53 259.24) rotate(-10.51)"/><path class="cls-5" d="M1617.1,1784.08c37.52-31.82,61.73-75.08,72.18-122.43,9.45-45.44,8.73-99.21-27.94-132.83a4.12,4.12,0,0,1,4.45-6.83c12.42,5.63,23.12,15.26,31.34,26.49,52.49,78.37,10.39,207.13-74.76,244.26-5.32,2.3-9.8-5-5.27-8.66Z"/><path class="cls-1" d="M588,1917.69c-25.16-21.32-57.1-40.26-93.92-54.38C383.62,1820.93,271,1838,242.55,1901.37s38.07,149.15,148.56,191.53,223.12,25.33,251.56-38.07Z"/><path class="cls-5" d="M242.63,1921c3.65,64.15,60.41,109.1,111.38,140.25,17.66,10.44,36.74,20.21,56.79,24.69,68,17.65,181,32.05,227.57-33a4.71,4.71,0,0,1,8.52,3.82,79.73,79.73,0,0,1-17.2,30.61c-23.88,26.43-59.54,38.35-93.93,42.66-106.65,13-233.48-51.82-287.86-143.54-11.05-19.72-18-42.62-16.85-65.6a5.79,5.79,0,0,1,11.58.11Z"/><path class="cls-4" d="M381.84,2031.35c31.44,16.46,65.78,25.35,96.83,26.63,36.42,1.49,68.42-7.4,86.06-26.74,32.73-35.8,3.95-93.82-64.3-129.55-65.12-34.13-142.67-35.63-178.1-4.54a52.8,52.8,0,0,0-4.79,4.66C284.81,1937.61,313.59,1995.62,381.84,2031.35Z"/><ellipse class="cls-1" cx="498.17" cy="1989.29" rx="62.61" ry="112.36" transform="translate(-1538.05 2232.74) rotate(-82.76)"/><path class="cls-5" d="M538.18,1935.71c-39.18-26.8-87.51-41.67-134.49-40.79-64.6,1.72-100.42,40.89-48.76,94.38,44.8,44.94,132,75.62,192.92,50.36,10.26-4.73,19.35-11.84,25.12-21.68a4.68,4.68,0,0,1,8.52,3.82c-16,39.9-65.17,49.65-103.62,48.69a231.69,231.69,0,0,1-112.66-34.63c-35.09-22.34-70.88-58.32-65.56-104.24,4-32.37,34.27-53.95,63.17-60.13,64.21-14.24,136.32,10.27,182.85,55.37,4.93,5-1.83,12.9-7.49,8.85Z"/><path class="cls-5" d="M1385.47,1738.82c11.23,66.43,76.58,66.6,126.08,41.74,33.4-15.78,62.88-41,85.91-69.91,28.33-36.9,54-87.27,36.46-133.8-2.68-6.61-6.84-12.22-11.23-17.91a4.07,4.07,0,0,1,5.91-5.48,73,73,0,0,1,19.87,24.81c13.64,29.25,9.73,63.94-.93,93.14-27.69,77.87-116.67,156.78-203.18,147.3-27.66-2.77-54.76-21.16-64.08-47.81a83,83,0,0,1-4.93-31.41,5.09,5.09,0,0,1,10.12-.67Z"/><path class="cls-5" d="M1158.66,2521.86A1212.72,1212.72,0,0,1,788,2464c-12.34-4-23.25-7.67-33.39-11.25-10.64-3.75-21.52-7.77-33.23-12.28-8.59-3.31-17.15-6.72-25.61-10.2s-16.89-7.06-25.25-10.71c-8.1-3.55-16.19-7.19-24.17-10.88-4.32-2-8.67-4-13-6.12-3.44-1.64-6.79-3.26-10.16-4.9l-1.77-.86c-4.22-2.07-8.34-4.13-12.48-6.23s-8-4.07-12-6.16-8-4.17-12-6.3-7.88-4.22-11.83-6.38l-.65-.36c-3.74-2-7.47-4.1-11.14-6.18l-1.72-1c-3.35-1.89-6.68-3.76-10-5.68-1.25-.71-2.72-1.56-4.18-2.41l-9-5.28c-3.75-2.2-7.58-4.51-11.42-6.86-18.32-11.11-36.6-22.89-54.28-35l-8-5.47c-4.67-3.24-9.22-6.46-13.75-9.74l-.4-.27c-2.27-1.62-4.53-3.23-6.78-4.89-15.28-11.1-30.53-22.74-45.24-34.53-2.07-1.65-4.19-3.36-6.31-5.08l-1.61-1.31c-1.19-1-2.37-1.92-3.52-2.89-3.12-2.52-6.48-5.34-9.85-8.18-12.88-10.77-26.07-22.32-39.17-34.31-3.17-2.87-6.39-5.85-9.58-8.85-25-23.31-49.37-48.15-72.48-73.77q-8.29-9.2-16.41-18.56c-11.66-13.5-22.79-26.93-33.11-39.94-2.25-2.8-4.56-5.72-6.82-8.66-10.72-13.75-21.53-28.26-32.09-43.07-4.5-6.34-8.91-12.67-13.26-19.08-6.24-9.11-12.44-18.44-18.38-27.68-3-4.7-6-9.45-9-14.18h0c-19.64-31.39-38.1-64.17-54.89-97.43-5.72-11.33-11.33-22.93-16.69-34.47-3.07-6.56-6.1-13.23-9.07-19.89-3.19-7.13-6.27-14.29-9.32-21.51-5.3-12.51-10.49-25.41-15.86-39.43q-5-13.23-9.74-26.49c-1.57-4.4-3.12-8.86-4.64-13.28a79.5,79.5,0,0,1-2.49-8.64c-.13-.48-.32-1.25-.48-2.06-.27-1.18-.47-2.34-.65-3.52a16.5,16.5,0,0,1-.31-2c-.09-.61-.16-1.21-.23-1.8l-.14-1.09c-.15-1.32-.19-2.2-.24-3.08l-.07-1.24c-.06-.68-.11-1.36-.13-2l0-.43v-.31a83,83,0,0,1,13.06-46.92c.07-.14.3-.51.53-.87l1.47-2.24a85.32,85.32,0,0,1,6.74-8.47c26.28-29.15,67.36-37.11,102.21-19.76,1.72.84,3.49,1.82,5.28,2.85,5.34,3.12,10.54,6.11,15.79,9,3.36,1.91,6.58,3.69,9.85,5.48,5.71,3.14,11.44,6.24,17.19,9.25,3.7,2,7.22,3.81,10.8,5.66,20.29,10.5,41.16,20.53,62,29.79,3.64,1.66,7.16,3.2,10.71,4.73,3.79,1.67,7.46,3.23,11.15,4.77,10,4.2,19,7.87,27.61,11.25l1.37.53,3.5,1.36c3.3,1.28,6.59,2.55,9.9,3.79l1.94.73c4.24,1.59,8.29,3.12,12.4,4.57,2.62,1,5,1.84,7.4,2.67,3.69,1.33,7.25,2.57,10.84,3.8,1.14.41,1.84.67,2.56.89l.63.21c4.86,1.7,9.72,3.3,14.62,4.89q8.28,2.74,16.38,5.25c7.33,2.3,14.63,4.45,21.93,6.58,3.81,1.11,7.63,2.22,11.46,3.29L417,1715c171,46.66,346.3,54.33,521.14,22.8,284.7-51.36,540.48-203.21,720.24-427.58a1178.32,1178.32,0,0,0,112.4-168c1.27-2.29,2.5-4.56,3.73-6.82l1.93-3.57c.95-1.77,1.92-3.59,2.88-5.42,2.13-3.94,4.14-7.78,6.1-11.59,1.22-2.32,2.37-4.6,3.53-6.88,3.46-6.77,6.67-13.27,9.84-19.84q6.15-12.61,12-25.34c2.22-4.94,4.5-10,6.77-15.14,2.37-5.35,4.68-10.69,7-16.1l.36-.85c2.23-5.31,4.45-10.64,6.61-16l.21-.5c2-4.94,4-9.88,5.91-14.88,10.86-27.86,20.83-56.61,29.65-85.48,1.43-4.72,2.87-9.48,4.26-14.26s2.76-9.62,4.09-14.38,2.59-9.38,3.82-14A1185.22,1185.22,0,0,0,1918.53,598l.11-4.25c.08-3.35.16-6.7.2-10l.06-11.53c0-6.06,0-12.06-.05-18.06l-.28-14.53a85.39,85.39,0,0,1,6.57-35.33c.76-1.8,1.59-3.58,2.5-5.31a75.8,75.8,0,0,1,5.73-9.67l2.37-3.22a84,84,0,0,1,12.54-13.17,89.66,89.66,0,0,1,32.63-17.38,85.67,85.67,0,0,1,48.68.35,83.94,83.94,0,0,1,32.47,18.88c.8.7,1.89,1.75,2.9,2.78s2,2.08,2.88,3.08c7,7.69,14.27,16,22.22,25.32q5.51,6.44,10.9,12.93c10.62,12.81,21.23,26.14,31.54,39.65,7.54,9.92,14.1,18.8,20.08,27.16a1228.33,1228.33,0,0,1,79.73,126.5c2.46,4.52,4.91,9,7.29,13.49,2.72,5.16,5.42,10.26,8,15.36,2.37,4.6,4.73,9.27,7.09,13.94,6,12.1,11.09,22.71,15.6,32.55,9.46,20.41,18.47,41.41,26.76,62.35.48,1.2,1,2.48,1.46,3.78L2301,860c.89,2.27,1.75,4.55,2.61,6.83.22.53.41,1,.58,1.58l1.24,3.26c.84,2.17,1.62,4.28,2.39,6.4l1.8,5c.5,1.25,1,2.55,1.38,3.84.84,2.25,1.66,4.55,2.49,6.86l.21.59c.61,1.72,1.23,3.46,1.78,5.2.82,2.22,1.59,4.47,2.33,6.68l1.91,5.7c.49,1.33.94,2.66,1.32,4,.29.79.55,1.57.8,2.35,1.48,4.46,2.95,9,4.36,13.52a19.77,19.77,0,0,1,.65,2c.86,2.67,1.68,5.32,2.5,8l.44,1.46c.58,1.91,1.17,3.84,1.72,5.76,1.53,4.94,3.09,10.25,4.61,15.58l.13.5c.12.39.24.81.35,1.23.23.91.45,1.66.68,2.42.63,2.14,1.2,4.24,1.77,6.34.67,2.37,1.31,4.62,1.88,6.89.31,1.06.6,2.13.89,3.21l.4,1.48c.05.15.16.59.27,1.06l0,.13c.85,3.21,1.66,6.27,2.44,9.35l.67,2.69c.91,3.55,1.84,7.36,2.76,11.15.37,1.38.71,2.77,1,4.16l.4,1.62c.75,3.18,1.45,6.16,2.11,9.16l.11.42c.32,1.32.64,2.66.92,4,.56,2.4,1.17,5.14,1.78,7.9l.71,3.25c.57,2.63,1.14,5.28,1.68,7.93l.79,3.7c.9,4.23,1.73,8.47,2.55,12.71.19.88.34,1.62.49,2.45l2,10.57c.2.94.44,2.18.64,3.45l1.5,8.46c.58,3.26,1.14,6.48,1.67,9.73.65,3.82,1.26,7.43,1.79,11,.29,1.56.52,3.11.72,4.68q1,6.21,1.85,12.49c.22,1.4.45,3.07.68,4.77l.17,1.28c.14.85.29,2,.44,3.19l.12.94c.21,1.42.42,3,.62,4.7.31,2.08.6,4.58.9,7.1l.14,1.16c.07.52.13,1,.19,1.54l.07.61c.56,4.6,1.11,9.2,1.6,13.84.17,1.32.33,3,.47,4.63.39,3.5.77,7.33,1.14,11.18l.27,2.69c.1.8.18,1.61.23,2.42.14,1.21.25,2.42.33,3.62q.54,5.7.95,11.41c0,.23.05.47.07.7.06.49.09.93.12,1.31l.21,2.91c.22,3.06.45,6.11.64,9.19.12,1.29.23,2.88.28,4.53.3,4.47.59,9,.8,13.43.16,2.44.33,5.17.41,7.91s.24,5.57.35,8.47l0,0,.58,18.22c0,.73.06,1.79.06,2.84.07,3.14.12,6.53.16,9.94l.05,3.26c.14,8.68.15,18,0,29.21-.16,13-.5,24.8-1,36.23-.13,4-.33,8.18-.58,12.39,0,.72,0,1.41-.09,2.09-.11,2.24-.26,4.49-.41,6.74s-.25,4.57-.43,7c-.19,3.24-.45,6.66-.71,10.1l-.2,2.68c-.32,4.39-.69,8.8-1.06,13.21,0,.6-.12,1.5-.24,2.42-.3,3.46-.61,6.92-1,10.42-.35,3.7-.75,7.6-1.19,11.52l0,.46c-.26,2.52-.54,5-.83,7.55-.09,1-.2,2-.34,3s-.26,2.28-.42,3.4c-.31,2.91-.68,5.81-1.05,8.71-.66,5.2-1.35,10.45-2.1,15.68-1.08,7.69-2.24,15.47-3.51,23.2l-2.49,15c-.28,1.66-.57,3.34-.86,5l-1.91,10.39c-.55,3-1.11,5.91-1.7,8.81l-1,5.24c-.5,2.5-.95,4.73-1.44,6.93-.15.86-.32,1.71-.53,2.57-.3,1.55-.63,3.1-1,4.66l-.58,2.68c-.42,2-.85,3.94-1.3,5.92-.07.45-.17,1-.29,1.48l-.69,3.16c-.57,2.61-1.16,5.26-1.81,7.91l-.2.9q-.3,1.35-.63,2.7c-.08.32-.15.65-.24,1-.38,1.75-.8,3.49-1.24,5.26-.3,1.41-.64,2.84-1,4.25-.21.84-.44,1.74-.68,2.64-.14.73-.32,1.46-.52,2.19-.26,1.16-.55,2.29-.87,3.44q-.72,3-1.54,6.15l-16.19-3.49,16,4.12-1.18,4.61c-.25,1.15-.56,2.28-.91,3.44-.55,2.24-1.17,4.5-1.81,6.79l-1.42,5.33c-.9,3.27-1.84,6.63-2.78,10l-2.93,10.22c-1,3.3-1.95,6.61-2.95,9.91-1.49,4.94-3,9.87-4.58,14.74-.21.81-.45,1.59-.72,2.36q-1,3.1-2,6.21l.07.12-5.21,15.41c-1.17,3.5-2.39,7-3.62,10.59l-2.49,7c-.62,1.87-1.37,3.94-2.16,6-.43,1.3-.89,2.55-1.36,3.84-.94,2.56-1.81,4.9-2.68,7.18-.41,1.22-.83,2.35-1.3,3.47-.67,1.87-1.36,3.71-2.06,5.55l-.29.81c-.94,2.45-1.75,4.54-2.59,6.65-.64,1.7-1.42,3.69-2.2,5.69l-1.11,2.82c-.68,1.73-1.36,3.47-2.07,5.19s-1.27,3.16-1.92,4.75l.24.42-3.75,8.11c-1.4,3.45-2.84,6.83-4.27,10.2-.79,1.87-1.64,3.82-2.49,5.77l-1,2.3c-1.25,2.89-2.54,5.85-3.82,8.74l-.59,1.32c-.26.6-.52,1.19-.79,1.78-1.72,3.9-3.63,8.1-5.56,12.26-.05.12-.15.34-.27.59l-1.07,2.3c-1.47,3.2-2.94,6.38-4.45,9.53-1.25,2.64-2.57,5.38-3.89,8.11l-1.93,4c-1.56,3.21-3.09,6.29-4.62,9.39l-1.4,2.83c-2,3.93-3.95,7.82-5.94,11.71-1.66,3.23-3.13,6-4.6,8.83l-1.85,3.54c-133,251.34-352.31,449.58-617.55,558.28A1226.61,1226.61,0,0,1,1158.66,2521.86Zm-1125-846.27.06.37c.16,1,.23,1.55.36,2.1l.34,1.5a52.68,52.68,0,0,0,1.6,5.6c1.51,4.37,3,8.73,4.56,13q4.6,12.93,9.48,25.78c5.23,13.63,10.27,26.19,15.41,38.34,3,7,6,14,9.07,20.9,2.9,6.5,5.85,13,8.85,19.43,5.23,11.25,10.69,22.53,16.24,33.54,16.33,32.35,34.3,64.24,53.4,94.78v0c2.88,4.6,5.8,9.22,8.74,13.8,5.77,9,11.79,18,17.89,26.93,4.26,6.27,8.53,12.41,12.89,18.55,10.26,14.41,20.79,28.53,31.26,42,2.17,2.81,4.33,5.55,6.53,8.27,10.11,12.76,20.94,25.84,32.28,39q7.88,9.09,16,18c22.48,24.93,46.21,49.08,70.54,71.8,3.08,2.9,6.14,5.73,9.22,8.52,12.81,11.71,25.63,22.94,38.17,33.43,3.25,2.74,6.45,5.42,9.7,8.06,1.26,1.06,2.24,1.85,3.22,2.64l1.69,1.38,6.07,4.89c14.34,11.49,29.17,22.81,44.12,33.67,2.2,1.62,4.31,3.12,6.42,4.62l.49.35c4.46,3.22,8.84,6.32,13.23,9.37l7.91,5.41c17.2,11.77,35,23.22,52.83,34.05,3.71,2.27,7.34,4.48,11,6.64l8.76,5.15,4.05,2.33c3.35,2,6.52,3.73,9.7,5.53l1.79,1c3.59,2,7.17,4,10.76,6l.66.37c3.82,2.09,7.68,4.17,11.51,6.21s7.79,4.13,11.67,6.15,7.72,4,11.65,6,8.05,4.06,12.07,6l1.71.83c3.3,1.61,6.58,3.2,9.92,4.79,4.21,2,8.43,4,12.67,6,7.81,3.63,15.69,7.17,23.56,10.62q12.21,5.33,24.61,10.43c8.18,3.37,16.51,6.69,24.88,9.91,11.42,4.4,22,8.31,32.35,12,9.87,3.48,20.51,7.07,32.53,11,549.26,176.31,1143.81-65.88,1413.71-575.91l1.83-3.5c1.42-2.72,2.85-5.44,4.25-8.16,2.14-4.19,4.07-8,5.95-11.73l1.4-2.82c1.5-3,3-6.06,4.48-9.11l1.92-4c1.27-2.65,2.55-5.3,3.81-8,1.5-3.11,2.89-6.13,4.29-9.16l1.37-3c1.84-4,3.67-8,5.44-12l.57-1.28c.27-.62.54-1.24.82-1.85,1.09-2.47,2.34-5.31,3.55-8.14l1.05-2.41c.78-1.8,1.57-3.62,2.34-5.44.5-1.18,1-2.34,1.49-3.51l-.28-.47,4.19-8.92c1.35-3.26,2.74-6.7,4.12-10.14.68-1.65,1.3-3.23,1.92-4.82l1-2.51c.85-2.17,1.57-4,2.28-5.89.83-2.09,1.53-3.91,2.22-5.69l.35-1c.79-2.08,1.53-4.05,2.25-6.06l.36-.9c.23-.54.43-1.09.63-1.69l.23-.64c.85-2.26,1.72-4.57,2.55-6.85.49-1.32.85-2.29,1.18-3.31l.27-.78c.69-1.82,1.35-3.62,2-5.49l2.53-7.17c1.15-3.32,2.34-6.77,3.51-10.26l2.77-8.28c1.46-4.4,2.89-8.84,4.29-13.26l.48-1.59q2.36-7.26,4.56-14.66c1-3.24,1.93-6.47,2.88-9.7l2.82-9.81c.92-3.29,1.84-6.56,2.74-9.85l1.41-5.29c.59-2.12,1.17-4.18,1.67-6.25l.27-1c.17-.53.32-1.06.44-1.6l1.19-4.64c.14-.64.32-1.29.5-1.94.41-1.58.88-3.44,1.31-5.29l.17-.65c.24-.88.46-1.75.66-2.64l.2-.77h0s0,0,0,0l.41-1.78c.24-.89.47-1.81.69-2.67.28-1.11.53-2.19.76-3.26l.13-.57c.41-1.67.82-3.3,1.17-4.94l.34-1.44c.18-.7.34-1.42.5-2.12l.3-1.32c.63-2.6,1.17-5,1.71-7.46l.91-4.34c.46-2,.88-4,1.31-6l.57-2.62c.29-1.4.61-3,.9-4.48l.55-2.64c.48-2.11.91-4.23,1.34-6.36l1-5.3c.64-3.18,1.21-6.14,1.75-9.09.32-1.79.65-3.64,1-5.45l.72-4c.67-3.88,1.35-7.78,2-11.67l.64-8.2.75-.43c1.21-7.39,2.3-14.71,3.32-22,.73-5.09,1.39-10.15,2-15.19.36-2.82.71-5.6,1-8.41l.07-.6c.12-.81.23-1.64.3-2.46l.12-.93c.08-.54.14-1.08.18-1.63l.06-.54q.43-3.72.82-7.42l.06-.53c.43-3.81.81-7.53,1.16-11.23s.67-7,1-10.38l.1-.93c0-.2,0-.4.07-.6.39-4.68.75-9,1.06-13.25l.2-2.76c.25-3.28.5-6.56.7-9.86.18-2.36.3-4.49.41-6.64.16-2.48.31-4.71.42-6.92v-.07l0-.37.06-.9c.25-4.12.45-8.26.59-12.37.52-11.27.85-22.75,1-35.32.14-10.91.13-19.89,0-28.28l0-3.34c-.05-3.31-.09-6.61-.16-9.91,0-.84,0-1.42,0-2l-.5-15.11c-.15-3.91-.29-7.82-.47-11.71-.08-2.63-.24-5-.39-7.33-.21-4.67-.51-9-.79-13.39l0-.67c0-1.09-.12-2.15-.21-3.24-.22-3.37-.44-6.31-.65-9.26l-.35-2.62V1207l0-.41c-.27-3.76-.58-7.49-.94-11.25l0-.53c-.05-.77-.1-1.56-.21-2.33l-.17-1.21v-.67l-.37-3.68c-.36-3.72-.73-7.43-1.13-11.17-.15-1.59-.27-2.85-.42-4.08-.51-4.79-1-9.22-1.58-13.63l-.41-3.42c-.27-2.23-.52-4.44-.84-6.65-.22-1.81-.41-3.16-.6-4.55l-.17-1.27c-.11-.84-.21-1.68-.34-2.53l-.23-1.64c-.2-1.46-.39-2.91-.62-4.37-.61-4.36-1.21-8.41-1.85-12.45l-.08-.55c-.13-1.12-.3-2.22-.51-3.33l-.1-.61c-.5-3.46-1.09-6.91-1.68-10.36s-1.11-6.6-1.66-9.7l-1.56-8.83c-.17-1.06-.32-1.78-.47-2.53l-2.48-13c-.8-4-1.58-8.11-2.44-12.12l-.83-3.87c-.54-2.69-1.08-5.2-1.62-7.69l-.67-3.07c-.58-2.63-1.16-5.24-1.78-7.86-.29-1.37-.54-2.39-.78-3.4l-.19-.77c-.69-3.12-1.35-5.93-2-8.76l-.41-1.65c-.28-1.15-.55-2.3-.87-3.45l-.13-.5c-.9-3.73-1.82-7.5-2.78-11.25l-.67-2.67c-.7-2.78-1.48-5.71-2.26-8.64,0-.1-.17-.65-.3-1.21l.15.55-.58-2.11c-.23-.87-.46-1.74-.72-2.59l-.21-.78c-.51-2.06-1.09-4.08-1.66-6.1l-.15-.51c-.5-1.87-1-3.73-1.56-5.61-.37-1.25-.74-2.52-1.05-3.77-.07-.22-.16-.54-.25-.88-1.44-5-2.9-10-4.45-15-.61-2.1-1.14-3.84-1.66-5.56l-.41-1.33c-.85-2.76-1.71-5.53-2.61-8.31l-.55-1.76c-1.35-4.33-2.75-8.62-4.18-13-.17-.54-.32-1-.5-1.47l-.58-1.76c-.19-.71-.42-1.39-.68-2.08l-2.19-6.48c-.67-2-1.35-4-2.1-6l-.32-.94c-.45-1.46-1-2.92-1.49-4.36l15.38-6.13-15.58,5.57c-.8-2.25-1.61-4.5-2.43-6.7l-.18-.52c-.29-.87-.59-1.77-.93-2.61l-2-5.55c-.72-2-1.43-3.9-2.18-5.83l-1.85-4.91q-1.32-3.53-2.68-7l-.51-1.28-2-5.23c-.44-1.21-.82-2.15-1.2-3.1-8.09-20.44-16.85-40.85-26.07-60.75-4.4-9.59-9.34-19.9-15.14-31.59-2.26-4.48-4.59-9.08-6.94-13.65-2.56-5-5.19-10-7.79-14.91-2.33-4.37-4.73-8.78-7.13-13.19A1194.38,1194.38,0,0,0,2125.69,605c-5.82-8.13-12.19-16.75-19.51-26.4-10-13.12-20.35-26.1-30.68-38.55q-5.25-6.31-10.59-12.57c-7.75-9.07-14.85-17.16-21.72-24.75-.7-.79-1.28-1.39-1.86-2-.44-.44-.95-1-1.48-1.41a51.51,51.51,0,0,0-20-11.79,52.55,52.55,0,0,0-29.83-.15,56.06,56.06,0,0,0-20.39,10.86,50.4,50.4,0,0,0-9,9.9l-.79,1.15a39.28,39.28,0,0,0-2.59,4.5l-.27.52c-.49.93-.93,1.88-1.33,2.85a52.64,52.64,0,0,0-4,21.85l.29,14.61c.1,6.29.1,12.55,0,18.8l-.07,11.59c0,3.58-.12,7.09-.21,10.6l-.1,4.23a1217.75,1217.75,0,0,1-40.17,280.47c-1.38,5.16-2.67,10-4,14.8s-2.72,9.79-4.19,14.74c-1.4,4.8-2.87,9.69-4.35,14.57-9.07,29.7-19.32,59.24-30.48,87.85-2,5.11-4,10.16-6,15.21l-.22.54q-3.4,8.43-6.91,16.72l-.32.77c-2.34,5.54-4.7,11-7.13,16.49q-3.42,7.73-6.9,15.44c-4.08,8.85-8.17,17.52-12.35,26.09q-4.89,10.13-10,20.18c-1.31,2.57-2.52,5-3.76,7.33-2,3.94-4.14,8-6.28,11.93-.92,1.75-1.93,3.67-3,5.61l-1.93,3.57c-1.29,2.36-2.57,4.73-3.87,7.07a1210.58,1210.58,0,0,1-115.53,172.67c-184.75,230.6-447.62,386.67-740.19,439.46-179.73,32.4-360,24.51-535.77-23.46l-7.77-2.14q-5.88-1.65-11.76-3.37c-7.52-2.2-15-4.41-22.52-6.76-5.56-1.72-11.2-3.53-16.84-5.4-4.94-1.6-9.93-3.25-14.93-5-1.13-.35-2.25-.75-3.37-1.15q-5.49-1.89-11.07-3.88c-2.48-.86-5.1-1.81-7.68-2.77-4.05-1.43-8.3-3-12.56-4.63l-1.9-.72c-3.58-1.33-7-2.66-10.43-4l-5.26-2c-8.58-3.37-17.83-7.13-28-11.42-3.86-1.6-7.74-3.25-11.6-4.95-3.62-1.55-7.35-3.2-11.06-4.89-21.34-9.47-42.81-19.78-63.67-30.58-3.73-1.92-7.41-3.84-11.08-5.82-5.78-3-11.72-6.22-17.62-9.46-3.41-1.87-6.79-3.74-10.16-5.65-5.31-3-10.73-6.07-16.14-9.23-1-.58-2.15-1.23-3.34-1.81-24.82-12.35-49.51-2.73-63,12.27a51.77,51.77,0,0,0-4,5l-1.41,2.2a50,50,0,0,0-7.89,28.42Zm2241.6,84.65.89.37,0,0Zm-3.69-35.21h0Zm44.37-141.7s0,0,0,0Zm18.09-87.5h0Zm-61.43-617.6v0Z"/><path class="cls-5" d="M882.67,2202.94c1.53,60,38.4,111.9,86.87,144.33,95.57,65.5,222.38,76.58,332,44.4,108.87-31.05,215-126.58,174.34-248.94-6.23-18.53-15.67-36.2-27.09-52.78,29.58,28.47,49.74,67.4,53.12,109.06,8.83,135.79-131,224.18-251.11,240.3-82.51,12-169.49.82-243.39-38.86-71.68-37.12-138.53-111.68-124.78-197.51Z"/><path class="cls-5" d="M1378.68,2291.21c58.14-73.38,28.2-157.91-49.34-201-70.68-39.78-160.95-44.24-237.08-17.79-73.15,24-144.16,93.92-114.66,175,31.14,78.61,120.74,114,200.67,121,6.57.52,6.31,10.36-.25,10.57-87.89,2.9-190.55-34.41-227.64-121-30.19-71,7.51-147.05,68.34-187.3,57-39.41,128.7-54.09,196.83-48.7,89.44,7.17,191.06,56,213.23,150.4,7.5,34.85.21,71.55-19,101.05a167.63,167.63,0,0,1-21.33,26.46,6.57,6.57,0,0,1-9.82-8.71Z"/><path class="cls-3" d="M1260.56,880l.59,68,.29,34.63,5.1,597.13s40.69-2.66,95-10.61c10.62-1.56,21.76-3.3,33.22-5.28,85.37-14.69,188.27-41.7,224.34-89.11,53.92-70.89,37.74-394.44-25.5-518.14-29-56.71-154.21-72.31-242.56-76.13-9.87-.44-19.29-.72-28-.88C1286,878.79,1260.56,880,1260.56,880Z"/><g class="cls-6"><path class="cls-5" d="M1261.15,947.93l.29,34.63,4,474.13,1,123,2.46-.18,1.58-.12,1.49-.12,1.19-.08c.15,0,.33,0,.49,0,.73-.06,1.55-.12,2.4-.21a4,4,0,0,0,.58,0c.7-.07,1.43-.13,2.22-.19,1.07-.08,2.16-.19,3.32-.3.82-.08,1.71-.14,2.59-.23l2.77-.25c1.19-.11,2.44-.24,3.71-.34,2.59-.27,5.33-.52,8.23-.84,2.55-.23,5.24-.52,8-.83,3.23-.36,6.61-.72,10.12-1.13,13-1.49,27.77-3.37,43.78-5.72,3.12-.45,6.29-.94,9.5-1.42,2.22-.33,4.51-.7,6.8-1.07,5.53-.87,11.21-1.8,16.92-2.79,85.4-14.69,188.27-41.7,224.31-89.11,44.42-58.36,41.32-288,3.49-436.43,15,130.46,8.53,271.71-25,315.7-16.55,21.75-92.51-46.89-93.76-88.93-3.23-108.42-28.75-246.69-133.35-323.67C1367.75,939.36,1309.91,950.2,1261.15,947.93Z"/></g><path class="cls-5" d="M1253.71,1593.49l-6.17-725.87,12.43-.57c30.25-1.39,296.83-10.83,345.12,83.6,66.05,129.2,81,457.27,24.26,531.87-68.39,89.91-350,109.29-362,110.07Zm19.89-701.07,5.73,673.28c57.1-5,276-28.57,329.45-98.83,50.4-66.24,33.43-386.83-26.71-504.45C1549.27,898.25,1358.93,890,1273.6,892.42Z"/><path class="cls-3" d="M1626.47,1229,1510,1244.14a23,23,0,0,0-19.88,19.93c-4.77,38.09-11.21,126.63,27.06,153.67,31.76,22.44,81,16.92,108.68-9.18,30.92-29.2,29.38-115.61,26.53-158.28A23,23,0,0,0,1626.47,1229Z"/><g class="cls-6"><path class="cls-5" d="M1490.17,1264.08c-4.79,38.08-11.22,126.63,27.06,153.65,31.77,22.45,81,16.93,108.69-9.18,19-18,25.74-57.57,27.44-95.31-4.25,19-11.68,34.72-21.42,45.27-55.81,60.47-103.48-4.64-103.48-4.64s-6.74,16.81-12.77,18.07c-25.23,5.27-24.31-74.66-22.88-116A22.33,22.33,0,0,0,1490.17,1264.08Z"/></g><path class="cls-5" d="M1564.44,1444.7c-19.66,0-39.06-5.37-54.68-16.4-42.51-30-38.56-116.8-32.43-165.84a35.94,35.94,0,0,1,31-31.14l116.44-15.15a35.95,35.95,0,0,1,40.52,33.25c4,59.94,2,137.83-30.55,168.53C1616.13,1435.57,1590.06,1444.7,1564.44,1444.7Zm63.7-202.9L1511.7,1257a10.07,10.07,0,0,0-8.72,8.71c-9.08,72.6-1,125.5,21.7,141.51,26,18.38,68.29,14.7,92.35-8,19.08-18,27.49-73.35,22.5-148a10.09,10.09,0,0,0-11.39-9.35Z"/><path class="cls-5" d="M1571.58,1441.49c-39.44-22.44-51.83-71.76-51.16-113.84.11-14.07.3-27.34,4.12-41.3a3.4,3.4,0,0,1,6.61,1.58c-1.17,5.9-1.3,12.89-1.21,19.5,1.38,39.78,9.23,85.74,44.13,109.53a37.67,37.67,0,0,0,6.57,3.58c16.58,5.4,6.4,29.24-9.06,21Z"/><path class="cls-5" d="M1415.25,950.59c43-8.07,86.09-14.47,129.92-16.42,14.76-.51,29.62-.63,45,1.08a12.94,12.94,0,1,1-3.75,25.58c-41.22-6.85-84.63-4.16-126.41-1.26-14.25,1.14-28.6,2.48-42.73,4.18-8.37.91-10.37-11.42-2.07-13.16Z"/><path class="cls-3" d="M600.45,1064.85c11.75-54.83,63-99.73,113.57-78.33,28.23,12.1,69.06,49.31,113.57,90.07Z"/><path class="cls-5" d="M827.59,1088.34H827l-227.14-11.75A11.75,11.75,0,0,1,589,1062.39c7.72-36.05,30.85-68,60.36-83.34,22.64-11.78,46.6-12.94,69.27-3.35,30.51,13.08,72.48,51.53,116.93,92.23a11.75,11.75,0,0,1-7.94,20.41Zm-211.81-34.47,179.65,9.3c-32.89-29.72-64.51-56.62-86-65.85-20.18-8.54-37.9-3.31-49.22,2.57C640.71,1010,624.2,1030.4,615.78,1053.87Z"/><path class="cls-3" d="M1048.86,1419.26,845.72,1722.18l-20.09,30-7.16,2.51-173,60.15c-75.27-32.86-134.29-69.59-173.33-111.06a43.15,43.15,0,0,1-7.05-48.84c8.22-16.41,17.31-29.61,27.06-39.91,37.75-40,85.29-36.85,129.82-11.67,31.76-55.33,63.21-96.3,94.46-126.18,43.27-41.47,86.16-61.72,128.76-69.63Z"/><path class="cls-5" d="M645.49,1826.55a11.75,11.75,0,0,1-4.7-1c-78.9-34.45-138.52-72.73-177.2-113.79a55,55,0,0,1-9-62.15c19.39-38.76,44.8-63.16,75.52-72.53,26.54-8.09,56.55-4.41,87.37,10.59,67.78-114.75,139.65-175.76,225.57-191.73a11.07,11.07,0,0,1,2.82-.17l203.64,11.74a11.75,11.75,0,0,1,9.08,18.28L835.39,1758.68a11.76,11.76,0,0,1-5.9,4.56L649.35,1825.9A11.94,11.94,0,0,1,645.49,1826.55Zm-86.68-230.14a74.5,74.5,0,0,0-21.82,3.17c-24.32,7.42-45,27.79-61.37,60.57a31.42,31.42,0,0,0,5.08,35.51c35.81,38,91.41,73.85,165.29,106.53l172.07-59.86,209.58-312.52L846,1419.33c-80.44,15.48-148.41,75.85-213.8,189.84a11.74,11.74,0,0,1-16,4.38C601.2,1605.06,580.56,1596.41,558.81,1596.41Z"/><path class="cls-5" d="M634.75,1599.06c3.66,21.71,15.07,41.17,35.62,51.21a4.23,4.23,0,0,1-2.77,7.92,75.52,75.52,0,0,1-34.87-17.77c-10.23-9.16-18-20.91-23.65-33.15-7.69-18.77,21-28,25.67-8.21Z"/><path class="cls-5" d="M912.88,1631.85a9.47,9.47,0,0,1-1.59-.13c-103.91-17-213.38-43.92-237.44-115.34a9.79,9.79,0,1,1,18.55-6.25c20.87,61.94,129.62,87.18,222,102.26a9.79,9.79,0,0,1-1.56,19.46Z"/><g class="cls-6"><path class="cls-5" d="M1048.86,1419.26,845.72,1722.18c-9,10.85-18.17,21.66-27.25,32.47l-173,60.15c-75.27-32.86-134.29-69.59-173.33-111.06a43.15,43.15,0,0,1-7.05-48.84c8.22-16.41,17.31-29.61,27.06-39.91a160.82,160.82,0,0,0-4,18.41c-2.15,13.59-2.46,28.08,3.37,40.57,4.51,9.68,12.38,17.39,20.44,24.36a272.64,272.64,0,0,0,61.45,39.87c13.51,6.38,28.63,11.71,43.23,8.46,18.68-4.19,31.33-21.07,42.3-36.74q40.65-58,81.22-116.07c15.27-21.78,30.67-43.9,39.83-68.89,6.26-17.11,8.3-39-5.41-51-15.42-13.51-39.24-5.48-57.84,3.17h-.31c43.27-41.47,86.16-61.72,128.76-69.63Z"/></g><path class="cls-3" d="M1469.26,1444.56c-9.79,90.86-65.79,171.06-149.36,208.07q-71.49,31.66-174.59,36.22c-20.56.9-40.8,6.27-58.43,16.92a128.93,128.93,0,0,0-45.86,46.37c-39.51,67.87-78.44,128.06-116.19,172.63a73.74,73.74,0,0,1-62.5,26c-101.43-8.58-206.11-61-265.33-115.92a55.5,55.5,0,0,1-17-50.48,54,54,0,0,1,3.76-12.34,218,218,0,0,1,21.62-38.73,61.42,61.42,0,0,1,43.51-25.53,150.2,150.2,0,0,1,59.29,5.21c105.73-176.23,192.36-252.75,321.13-258.47L857,1145.13,911.79,965l426.87-23.49c32.93-12.65,65.87,25.57,91.13,93.59,23.18,62.31,39.9,149.6,44.33,245.74.08,2.2.15,4.43.27,6.66A1073.11,1073.11,0,0,1,1469.26,1444.56Z"/><path class="cls-5" d="M868.43,1962.79c-2.36,0-4.72-.09-7.08-.29-109.39-9.25-215.59-66.44-272.32-119A67.2,67.2,0,0,1,573,1767.32a233.33,233.33,0,0,1,22.8-40.81,73.23,73.23,0,0,1,51.83-30.41,162.7,162.7,0,0,1,55,3.29c104.52-172.23,190-243.76,307.4-255.29L846.7,1150.85a11.81,11.81,0,0,1-1-9.14l54.83-180.15a11.75,11.75,0,0,1,10.6-8.31l425.14-23.4c11.6-3.94,28.86-5,48.27,10,74.27,57.12,119.31,293.57,96.39,506-10.37,96.1-70.25,179.46-156.28,217.57-49,21.67-109.12,34.19-178.85,37.21-19.48.84-37.76,6.1-52.85,15.23a117.74,117.74,0,0,0-41.77,42.2c-45.4,78-82.71,133.37-117.42,174.34A85.86,85.86,0,0,1,868.43,1962.79ZM665.84,1718.58a143.78,143.78,0,0,0-15.69.88,49.74,49.74,0,0,0-35.21,20.61,210.46,210.46,0,0,0-20.47,36.69A43.71,43.71,0,0,0,605,1826.25c53.78,49.83,154.51,104,258.33,112.83a62.18,62.18,0,0,0,52.52-21.9c33.34-39.36,71-95.28,115-171a141.05,141.05,0,0,1,50-50.53c18.45-11.15,40.58-17.58,64-18.59,66.79-2.89,124.1-14.74,170.35-35.22,78.39-34.71,133-110.82,142.44-198.6,23.43-217.19-27.72-439-87.36-484.84-9.63-7.42-18.58-9.38-27.36-6a11.82,11.82,0,0,1-3.57.77l-418.66,23-51,167.51,169.88,305a11.76,11.76,0,0,1-9.74,17.46C910,1471.55,825.6,1540.06,718.22,1719a11.76,11.76,0,0,1-13.37,5.24A137.57,137.57,0,0,0,665.84,1718.58Zm672.82-777.1h0Z"/><path class="cls-5" d="M1046.7,1751.13c-123,0-234.35-70.85-259.83-165.67a11.75,11.75,0,1,1,22.69-6.09c22.44,83.49,126.35,148.26,237.24,148.26h2.66a11.75,11.75,0,0,1,.1,23.5Z"/><path class="cls-5" d="M721.31,1710.22c5.43,32.56,31.76,60.06,62.91,71.07,7.44,2.55,4.38,13.78-3.33,12.19-39.25-8.37-74.35-38.35-85.91-77.74-4.44-18.51,22.95-24.28,26.33-5.52Z"/><path class="cls-5" d="M960.42,1453.32c109.36-32.08,231-46.73,340.05-6.16,4,1.49,2.35,7.73-2,6.87-55.16-11-111.13-13.75-167-9.23-55.77,4.76-110.6,16.71-164.71,31.13-14.76,3.61-21-17.85-6.39-22.61Z"/><g class="cls-6"><path class="cls-5" d="M1474.39,1287.48c-12.1,5.6-26.12,8.38-40.3,9.83-7.75.82-15.54,1.25-23.06,1.49-14.1.51-30.08.31-39.83-9.91-14-14.61-6.15-38.34.12-57.61a234.75,234.75,0,0,0,10.14-96.18l-3.6.12c7.4-9.2,5.64-22.4,4.89-34.15-.9-14.88.63-30.35,7.8-43.39s21-23.15,35.83-22.83c1.13,0,2.27.12,3.41.23,23.18,62.31,39.9,149.6,44.33,245.74C1474.2,1283,1474.27,1285.25,1474.39,1287.48Z"/></g><g class="cls-6"><path class="cls-5" d="M1469.26,1444.56c-9.79,90.86-65.79,171.06-149.36,208.07q-71.49,31.66-174.59,36.22c-20.56.9-40.8,6.27-58.43,16.92a128.93,128.93,0,0,0-45.86,46.37c-39.51,67.87-78.44,128.06-116.19,172.63a73.74,73.74,0,0,1-62.5,26c-101.43-8.58-206.11-61-265.33-115.92a55.5,55.5,0,0,1-17-50.48,112.8,112.8,0,0,0,12.65,16.72,115.88,115.88,0,0,0,23.5,19.58c96.73,62.26,144.9,70.49,144.9,70.49,29.47,5,77.87,13.31,113.13-14.05,17-13.15,23.86-29.59,29-39.68,38.11-74.4,65.29-161.89,136.17-206.22,34.58-21.66,75.62-30,115.8-36.89,29.49-5.06,60-9.87,85.38-25.65s44.68-45.75,38.18-75c-5.13-23.15-25.22-40.65-47.39-49.19s-46.33-9.51-70-10.42l23.54-11.47a324,324,0,0,1,37.28-78c4.62-7,9.91-14.22,17.66-17.51,6.46-2.78,13.75-2.42,20.8-2.19a470.1,470.1,0,0,0,173.52-27.61c13.59-4.85,27-10.38,40-16.49.08,2.2.15,4.43.27,6.66A1073.11,1073.11,0,0,1,1469.26,1444.56Z"/></g><path class="cls-3" d="M954.49,1346.8l239.44-2.25a51.7,51.7,0,0,0,51.07-52l-1.2-127.42a51.73,51.73,0,0,0-41.74-50.12,50,50,0,0,0-10.31-1l-239.4,2.25a51.66,51.66,0,0,0-51.07,52l.93,100.92.23,26.5A51.71,51.71,0,0,0,954.49,1346.8Z"/><g class="cls-7"><path class="cls-5" d="M954.49,1346.8l239.44-2.25a51.7,51.7,0,0,0,51.07-52l-1.2-127.42a51.73,51.73,0,0,0-41.74-50.12c-13.51,9.16-22.09,15-22.09,15-10.69,102.39-39.34,153.67-166.33,156.93-54.81,1.4-89.5-6.64-111.43-17.68l.23,26.5A51.71,51.71,0,0,0,954.49,1346.8Z"/></g><path class="cls-5" d="M954,1357.19a62,62,0,0,1-61.93-61.36l-1.19-127.43a62.07,62.07,0,0,1,61.36-62.52l239.42-2.25a62.11,62.11,0,0,1,62.52,61.36l1.19,127.44A62.09,62.09,0,0,1,1194,1355l-239.42,2.24Zm238.24-232.8h-.39l-239.42,2.25a41.33,41.33,0,0,0-40.79,41.56l1.19,127.44A41.24,41.24,0,0,0,954,1336.43h.39l239.42-2.25a41.31,41.31,0,0,0,40.79-41.56l-1.19-127.43a41.35,41.35,0,0,0-41.18-40.8Z"/><path class="cls-3" d="M944.87,1346a45.45,45.45,0,0,0,9.62.85l239.44-2.25a51.64,51.64,0,0,0,46.62-30.74,50.77,50.77,0,0,0,4.42-21.3l-.51-56.61-.17-18.67-.49-52.14a51.72,51.72,0,0,0-52-51.07l-51.73.5a51.7,51.7,0,0,1,42.49,50.21l.67,68.83.54,58.63a51.73,51.73,0,0,1-51.07,52Z"/><g class="cls-7"><path class="cls-5" d="M944.87,1346a45.45,45.45,0,0,0,9.62.85l239.44-2.25a51.65,51.65,0,0,0,51-52l-.68-75.28c-5.9,13.36-16.57,29.79-33.86,31.66-9.49,1-18.9-5.69-27.25-15.33l.54,58.63a51.73,51.73,0,0,1-51.07,52Z"/></g><path class="cls-5" d="M953.75,1357.19a58.21,58.21,0,0,1-10.85-1l1.86-20.58,187.8-1.74a41.3,41.3,0,0,0,40.76-41.55l-1.19-127.44a41.22,41.22,0,0,0-33.93-40.13l1.73-20.6,51.72-.49a62.09,62.09,0,0,1,62.52,61.37l1.19,127.42A62.07,62.07,0,0,1,1194,1355l-239.43,2.23Zm223.85-232.67a61.81,61.81,0,0,1,15.29,40.13l1.2,127.43a61.48,61.48,0,0,1-16.18,42.26l15.92-.16a41.3,41.3,0,0,0,40.77-41.55h0l-1.19-127.43a41.33,41.33,0,0,0-41.57-40.8Z"/><path class="cls-8" d="M1088.71,1230.38c.07,4.71,7.27,42.65,7.27,42.65l26.85-.41c18.48-.28,33.18-19.64,32.82-43.25s-15.63-42.52-34.11-42.24l-26.85.4S1088.6,1222.71,1088.71,1230.38Z"/><g class="cls-7"><path class="cls-5" d="M1088.71,1230.38c.07,4.71,7.27,42.65,7.27,42.65l26.85-.41c18.48-.28,33.18-19.64,32.82-43.25s-15.63-42.52-34.11-42.24l-26.85.4S1088.6,1222.71,1088.71,1230.38Z"/></g><path class="cls-5" d="M1104,1281.21a18,18,0,0,1-17.72-14.73c-5.83-31.45-5.88-34.74-5.9-36-.07-4.57,1.53-16.78,4.74-36.29a18,18,0,0,1,17.52-15.1l18.74-.28c11.62-.15,22.36,5.24,30.44,15.24,7.61,9.42,11.9,21.91,12.1,35.18s-3.71,25.87-11,35.52c-7.78,10.24-18.42,16-30,16.16l-18.64.28Zm-7-51c.09,1.83,1.61,11.6,5.62,33.23a1.35,1.35,0,0,0,1.42,1.15l18.64-.28c6.33-.1,12.37-3.5,17-9.6,5.08-6.69,7.8-15.65,7.66-25.22s-3.14-18.45-8.42-25c-4.8-6-11-9-17.27-9.08l-18.74.29a1.42,1.42,0,0,0-1.38,1.18C1098.16,1217.43,1097,1227.56,1097,1230.22Z"/><ellipse class="cls-8" cx="1095.34" cy="1230.28" rx="33.47" ry="42.75" transform="translate(-18.47 16.7) rotate(-0.87)"/><g class="cls-7"><path class="cls-5" d="M1116.16,1197a51.18,51.18,0,0,1,.34,5.15c.36,23.61-14.33,43-32.82,43.26-8.1.12-15.58-3.45-21.47-9.48,2.32,21.14,16.66,37.35,33.78,37.09,18.48-.28,33.17-19.65,32.82-43.25C1128.61,1216.51,1123.7,1204.74,1116.16,1197Z"/></g><g class="cls-2"><path class="cls-3" d="M1071.84,1242c-.36-23.61,14.34-43,32.82-43.26a28.09,28.09,0,0,1,17.17,5.77c-6.26-10.41-16.11-17.1-27.14-16.94-18.48.28-33.18,19.65-32.82,43.26.23,15.63,7,29.16,17,36.47A50.71,50.71,0,0,1,1071.84,1242Z"/></g><path class="cls-5" d="M1095.58,1281.34c-22.79,0-41.59-22.49-42-50.43h0c-.21-13.26,3.71-25.88,11-35.52,7.78-10.25,18.42-16,30-16.16s22.35,5.24,30.44,15.25c7.6,9.41,11.9,21.9,12.1,35.17s-3.72,25.88-11,35.52c-7.78,10.25-18.42,16-30,16.16Zm-25.41-50.68c.29,18.86,11.66,34.07,25.4,34.07h.29c6.33-.09,12.36-3.5,17-9.59,5.09-6.7,7.81-15.66,7.66-25.23s-3.13-18.44-8.41-25c-4.81-5.94-10.95-9.08-17.27-9.07s-12.37,3.5-17,9.59c-5.08,6.7-7.8,15.66-7.66,25.23Z"/><path class="cls-5" d="M1028.91,1354.33a9.14,9.14,0,0,1-9.13-8.84l-2.75-83.14a.59.59,0,0,0-.26-.47L984.51,1242a18.76,18.76,0,0,1-9-15.81l-1.41-110a9.14,9.14,0,0,1,18.28-.24l1.41,110a.57.57,0,0,0,.27.48l32.26,19.86a18.77,18.77,0,0,1,9,15.43l2.75,83.14a9.13,9.13,0,0,1-8.83,9.44Z"/><path class="cls-3" d="M1491.62,1219s19.19,20.09,18.84,49.85c-.41,34.4-18.73,47.6-18.73,47.6s-79.67,45-203,7.8c0,0-34.35-57.66,7.82-87.66C1296.6,1236.61,1427.21,1263.92,1491.62,1219Z"/><g class="cls-6"><path class="cls-5" d="M1510.45,1268.89c-.41,34.36-18.72,47.56-18.72,47.56s-79.65,45-203,7.81c0,0-11.29-19-13-40.83.54,1.1.9,1.67.9,1.67,90.11,27.18,156.91,10.46,186.33-.51,20.43-7.61,34.77-29.14,35.33-53.83,0-.34,0-.68,0-1a10.7,10.7,0,0,0,0-1.7C1503.84,1236.7,1510.67,1251.06,1510.45,1268.89Z"/></g><path class="cls-5" d="M1384.84,1348.78a339.3,339.3,0,0,1-91.73-13,27.44,27.44,0,0,1-17.32-15.48c-7.29-16.1-21.2-56.61,6.91-84.7a25.2,25.2,0,0,1,22.38-7.31c26.28,4.6,116.26,17.4,170.73-11.08h0c12.37-6.48,27.52-1.26,34.46,11.88a83.72,83.72,0,0,1,10,39.94c-.36,30.43-13.61,46.77-19.29,52.38a26.36,26.36,0,0,1-6.72,4.85C1484.51,1331.1,1445.15,1348.77,1384.84,1348.78Zm-84-101.33a6.07,6.07,0,0,0-4.28,2c-18.76,18.75-9.87,47.39-2.91,62.79a8.15,8.15,0,0,0,4.76,4.68c104.42,29.26,174.14-1.66,187.06-8.16a6.66,6.66,0,0,0,1.74-1.28c4-3.91,13.2-15.51,13.48-38.68a63.21,63.21,0,0,0-7.71-30.55c-1.57-3-4.78-5.42-8.08-3.69h0c-59.94,31.35-155.36,17.88-183.18,13A5.14,5.14,0,0,0,1300.82,1247.45Z"/><path class="cls-9" d="M1031.78,1458.42H576.48a50.76,50.76,0,0,1-46.29-29.92L416.74,1176.38a105.16,105.16,0,0,1-7.09-65.79,95.46,95.46,0,0,1,7.56-21.5c6.54-13.28,15.47-24.2,27.45-32a26,26,0,0,1,14.1-4H891.43a26.59,26.59,0,0,1,24.9,17.23l135.39,359.27A21.32,21.32,0,0,1,1031.78,1458.42Z"/><g class="cls-2"><path class="cls-3" d="M1051.72,1429.6,916.33,1070.33a26.59,26.59,0,0,0-24.9-17.23H458.76a26,26,0,0,0-14.1,4c-12,7.8-20.91,18.72-27.45,32a94.61,94.61,0,0,0-4.8,11.7,73.86,73.86,0,0,1,20.51-20.2,26,26,0,0,1,14.09-4H879.68a26.6,26.6,0,0,1,24.9,17.24L1040,1453.1a21.72,21.72,0,0,1,.91,3.26A21.31,21.31,0,0,0,1051.72,1429.6Z"/></g><g class="cls-6"><path class="cls-5" d="M1052,1430.5a21.77,21.77,0,0,1-4.54.51H911.15a170.66,170.66,0,0,0-15.62-33.25,13.79,13.79,0,0,0-4.12-4.8c-2.78-1.73-6.33-1.36-9.58-.93-52.37,6.83-105.43,11.38-158,5.84-15.24-1.6-30.39-4.06-45.52-6.51-20.62-3.34-41.31-6.69-61.28-12.84a216.73,216.73,0,0,1-22.07-8.11c-51.25-22-91.58-63.61-114.47-114.48l-48.13-107a105.11,105.11,0,0,1-7.09-65.8A94.73,94.73,0,0,1,428.9,1071a87.74,87.74,0,0,0-11.69,18.06,95.46,95.46,0,0,0-7.56,21.5,105.16,105.16,0,0,0,7.09,65.79L530.19,1428.5a50.76,50.76,0,0,0,46.29,29.92h455.3A21.28,21.28,0,0,0,1052,1430.5Z"/></g><path class="cls-3" d="M757.85,1238.69a80.22,80.22,0,0,1,3.24,8.88c-11.72,10.1-34.88,24.27-62.55,37.65s-53,22.63-67.86,25.39a79.56,79.56,0,0,1-4.25-8.4l-.17-.41c-.55-1.3-1.07-2.59-1.54-3.9a79.9,79.9,0,0,1-2.77-9.27l-.09-.38a80.39,80.39,0,0,1,1.11-39.9c5.8-20.23,19.48-37.84,39.11-47.33a68.56,68.56,0,0,1,59-.52,71.89,71.89,0,0,1,20.44,14.2,74.22,74.22,0,0,1,8.88,10.59l.64.93a79.16,79.16,0,0,1,4.83,8.27c.54,1.08,1.06,2.17,1.55,3.28C757.58,1238.07,757.72,1238.38,757.85,1238.69Z"/><path class="cls-3" d="M764.14,1277a81.71,81.71,0,0,1-1.31,9.25,80.29,80.29,0,0,1-3.6,12.51,74.46,74.46,0,0,1-37,41.07,68.41,68.41,0,0,1-53.73,2.71,69.77,69.77,0,0,1-10.81-5,72.61,72.61,0,0,1-7.88-5.22c17.71-4.79,38.16-12.48,59.32-22.71A356.89,356.89,0,0,0,764.14,1277Z"/><path class="cls-3" d="M761.08,1247.57c-11.7,10.1-34.87,24.27-62.54,37.64s-53,22.64-67.86,25.4a79.56,79.56,0,0,1-4.25-8.4l-.17-.41c-.55-1.3-1.07-2.59-1.54-3.9a79.9,79.9,0,0,1-2.77-9.27l-.09-.37a80.44,80.44,0,0,1,1.11-39.91,76.16,76.16,0,0,1,28.52-41,78.61,78.61,0,0,0-8.41,19.24,80.42,80.42,0,0,0-3,26,79.19,79.19,0,0,0,1.91,13.94c0,.13.06.25.08.38s.1.37.17.61c3.68,13.12,17,18.61,29.94,17.38,24.59-2.36,77.82-32.76,89.14-39.78C762.09,1247.07,760.47,1245.53,761.08,1247.57Z"/><path class="cls-3" d="M709.1,1309.61a356.89,356.89,0,0,0,55-32.57,81.71,81.71,0,0,1-1.31,9.25c-11.55,8.94-30,20-51.52,30.4-20.6,10-39.81,17.28-53.65,20.85a72.61,72.61,0,0,1-7.88-5.22C667.49,1327.53,687.94,1319.84,709.1,1309.61Z"/><path class="cls-3" d="M757.44,1237.77c.14.3.28.61.41.92a80.22,80.22,0,0,1,3.24,8.88c-11.72,10.1-34.88,24.27-62.55,37.65s-53,22.63-67.86,25.39a79.56,79.56,0,0,1-4.25-8.4l-.17-.41c14.12-1.72,39.86-10.67,68.08-24.31C723.67,1263.31,747.63,1248,757.44,1237.77Z"/><path class="cls-3" d="M619.84,1276.88l.23-5.14c9.85.5,35.57-8.27,62.56-21.31,32.18-15.56,53-30.43,56.84-37.08l4.14,2.7c-5.13,8.8-28.83,24.5-59,39.06C656.6,1268.67,630.55,1277.42,619.84,1276.88Z"/><path class="cls-3" d="M623.34,1250.9l-.73-5.09c11.06-1.79,30.24-8.84,50-18.42,20.75-10,38.69-21.06,46.82-28.8l3.26,3.82c-8.47,8.07-26.89,19.43-48.05,29.66C654.5,1241.83,634.83,1249,623.34,1250.9Z"/><path class="cls-3" d="M621.86,1290.83v-5.15c11.31,0,37.88-9.17,66.14-22.83,29.65-14.32,54.5-30.39,60.45-39.07l3.94,3c-6.49,9.47-31.55,25.84-62.36,40.73C660.74,1281.69,634,1290.83,621.86,1290.83Z"/><path class="cls-3" d="M668.56,1343.87l-.09-1.28-.57-1.14.22-.13.25,0c9.77-.79,28.38-7.24,47.41-16.44s35.45-19.58,42.6-27l1.7,1.84c-7.33,7.59-23.92,18.12-43.29,27.48C697.23,1336.66,678.75,1343,668.56,1343.87Z"/><path class="cls-3" d="M764.14,1277c-2.19,26.48-17.43,51-41.94,62.83s-52,8-72.42-7.55c17.71-4.79,38.16-12.48,59.32-22.71A356.89,356.89,0,0,0,764.14,1277Z"/><path class="cls-3" d="M799.39,1230.5c4.4,10.17-9.91,27.93-35.25,46.54a356.89,356.89,0,0,1-55,32.57c-21.16,10.23-41.61,17.92-59.32,22.71-29.9,8.09-52,7.92-56.37-2.26-4-9.23,7.43-24.72,28.54-41.43a79.9,79.9,0,0,0,2.77,9.27c-5.84,5.08-8.7,9.11-7.69,11.44s6,2.69,13.65,1.27c14.89-2.76,40.18-12,67.86-25.39s50.83-27.55,62.55-37.65c6-5.22,9-9.36,8-11.74s-5.77-2.67-13.22-1.34a79.16,79.16,0,0,0-4.83-8.27C776.83,1220.28,795.39,1221.27,799.39,1230.5Z"/><path class="cls-3" d="M624.27,1296.66c.15.41.29.83.45,1.24-5.84,5.08-8.71,9.11-7.69,11.44s6,2.7,13.65,1.27c9.88-1.83,24.33-6.52,41-13.38a11.66,11.66,0,0,0,0,4.33c-6.44,2.56-12.69,4.82-18.61,6.75-25.77,8.36-39.2,8.24-40.78,4.59C611.4,1310.77,614.07,1305.4,624.27,1296.66Z"/><path class="cls-3" d="M622.35,1293l.62.82a112.84,112.84,0,0,0-12.35,11.53C612.89,1301.75,616.8,1297.65,622.35,1293Z"/><path class="cls-3" d="M623.58,1294.58l-.61-.81.29-.24Z"/><path class="cls-3" d="M610.62,1305.3c-2.38,3.69-3,6.78-1.88,9.34s3.62,3.88,7.13,4.47c9.16,1.53,24.92-2.45,38.38-6.82,6.09-2,12.52-4.31,19.15-6.94a12.69,12.69,0,0,0,5.62,4c-9.8,4-19.3,7.3-28.2,9.93-31.74,9.37-45.53,6.85-47.7,1.85C601.92,1318.36,603.65,1313,610.62,1305.3Z"/><path class="cls-3" d="M707.79,1310.24c-20.69,9.92-40.66,17.39-58,22.08-29.9,8.09-52,7.92-56.37-2.26-4-9.23,7.44-24.72,28.54-41.43.22.93.45,1.85.7,2.77l-1.2-1.66c-12.25,9.91-26,23.7-21.91,33.13,1.58,3.65,5.32,5.62,10.27,6.45,11.65,1.94,29.94-2.44,42.07-6a329.23,329.23,0,0,0,33.9-12.25C691.65,1311.84,699.12,1311.55,707.79,1310.24Z"/><path class="cls-3" d="M673.4,1305.35c-6.63,2.63-13.06,5-19.15,6.94-13.46,4.37-29.22,8.35-38.38,6.82-3.51-.59-6-2-7.13-4.47s-.5-5.65,1.88-9.34A112.84,112.84,0,0,1,623,1293.77l.61.81c.22.69.45,1.39.69,2.08-10.2,8.74-12.87,14.11-11.95,16.24,1.58,3.65,15,3.77,40.78-4.59,5.92-1.93,12.17-4.19,18.61-6.75a9.5,9.5,0,0,0,.59,1.92A9.27,9.27,0,0,0,673.4,1305.35Z"/><path class="cls-3" d="M623,1293.77a112.84,112.84,0,0,0-12.35,11.53c2.27-3.55,6.18-7.65,11.73-12.35Z"/><path class="cls-3" d="M623.58,1294.58l1.23,1.62-.54.46C624,1296,623.8,1295.27,623.58,1294.58Z"/><path class="cls-3" d="M746.88,1267.52a393.14,393.14,0,0,1-45,25.3c-9.63,4.66-19.23,8.88-28.43,12.53a9.27,9.27,0,0,1-1.1-1.87,9.5,9.5,0,0,1-.59-1.92c9.21-3.63,18.83-7.86,28.48-12.52a389.62,389.62,0,0,0,44.59-25c22.84-15.13,31.53-26,30-29.59-1-2.18-6.72-3.56-20.13-.93l-.54-3.08-.18-1c7-1.38,12.53-1.82,16.56-1.31s6.77,2.06,7.87,4.6C782.22,1241.67,763.37,1256.59,746.88,1267.52Z"/><path class="cls-3" d="M685.78,1311.05a329.23,329.23,0,0,1-33.9,12.25c-12.13,3.58-30.42,8-42.07,6-4.95-.83-8.69-2.8-10.27-6.45-4.09-9.43,9.66-23.22,21.91-33.13l1.2,1.66c.2.72.4,1.43.61,2.13l-.29.24-.62-.82c-5.55,4.7-9.46,8.8-11.73,12.35-7,7.73-8.7,13.06-7.5,15.84,2.17,5,16,7.52,47.7-1.85,8.9-2.63,18.4-6,28.2-9.93A28.05,28.05,0,0,0,685.78,1311.05Z"/><path class="cls-3" d="M622.35,1293l.62.82a112.84,112.84,0,0,0-12.35,11.53C612.89,1301.75,616.8,1297.65,622.35,1293Z"/><path class="cls-3" d="M622.65,1291.4l1.2,1.65-.59.48C623.05,1292.83,622.85,1292.12,622.65,1291.4Z"/><path class="cls-3" d="M756.31,1272.82A370.43,370.43,0,0,1,705.8,1302c-6.71,3.25-13.41,6.27-20,9a28.05,28.05,0,0,1-6.76-1.69c8.24-3.31,16.69-7.06,25.15-11.14a366.7,366.7,0,0,0,50-28.87c27.47-19.25,34.68-31.92,32.52-36.92-1.2-2.78-6.14-4.87-16.2-4.37a104.85,104.85,0,0,0-16.38,2.33l-1.09.24-.8-4.08c15.1-3.32,34-5.29,38.05,4.14C795.54,1243,771.26,1262.34,756.31,1272.82Z"/><path class="cls-3" d="M799.39,1230.5c4.4,10.17-9.91,27.93-35.25,46.54a356.89,356.89,0,0,1-55,32.57c-21.16,10.23-41.61,17.92-59.32,22.71-29.9,8.09-52,7.92-56.37-2.26-4-9.23,7.43-24.72,28.54-41.43a79.9,79.9,0,0,0,2.77,9.27c-5.84,5.08-8.7,9.11-7.69,11.44s6,2.69,13.65,1.27c14.89-2.76,40.18-12,67.86-25.39s50.83-27.55,62.55-37.65c6-5.22,9-9.36,8-11.74s-5.77-2.67-13.22-1.34a79.16,79.16,0,0,0-4.83-8.27C776.83,1220.28,795.39,1221.27,799.39,1230.5Z"/><path class="cls-3" d="M761.1,1247.83q-2,1.77-4.54,3.69-1-3-2.3-6c-.13-.31-.27-.61-.4-.91-.5-1.12-1-2.21-1.56-3.28a77.15,77.15,0,0,0-4.83-8.27c-.21-.32-.42-.63-.64-.94a74.22,74.22,0,0,0-8.88-10.59,72,72,0,0,0-20.44-14.2,68.56,68.56,0,0,0-59,.52,73.2,73.2,0,0,0-30.6,27.94,73.86,73.86,0,0,1,34.21-34.54,68.56,68.56,0,0,1,59-.52,72.23,72.23,0,0,1,20.44,14.2,74.22,74.22,0,0,1,8.88,10.59c.22.31.43.62.64.94a76.24,76.24,0,0,1,4.82,8.26c.55,1.08,1.07,2.17,1.56,3.28.14.31.28.61.41.92A80.15,80.15,0,0,1,761.1,1247.83Z"/><path class="cls-3" d="M757.85,1238.69a80.22,80.22,0,0,1,3.24,8.88c-11.72,10.1-34.88,24.27-62.55,37.65s-53,22.63-67.86,25.39a79.56,79.56,0,0,1-4.25-8.4c-.61-1.43-1.19-2.87-1.71-4.31a79.9,79.9,0,0,1-2.77-9.27c-8.14-34.91,8-72.1,40.13-87.61s69.3-4.13,89,25.2a79.16,79.16,0,0,1,4.83,8.27Q756.93,1236.54,757.85,1238.69Z"/><path class="cls-10" d="M752,1241.71a72.58,72.58,0,0,1,2.93,8c-10.6,9.14-31.55,22-56.59,34.06s-47.92,20.47-61.38,23a70.23,70.23,0,0,1-3.85-7.6c-.05-.12-.1-.25-.16-.37-.5-1.17-1-2.35-1.39-3.53a71,71,0,0,1-2.5-8.38c0-.11-.06-.23-.08-.34a71.71,71.71,0,0,1-1.73-12.62,72.78,72.78,0,0,1,2.73-23.48c5.25-18.31,17.62-34.24,35.38-42.82a62,62,0,0,1,53.39-.47,65.08,65.08,0,0,1,18.5,12.84,67.9,67.9,0,0,1,8,9.58c.2.28.39.56.58.85a69.7,69.7,0,0,1,4.37,7.48c.49,1,1,2,1.4,3C751.75,1241.16,751.87,1241.44,752,1241.71Z"/><path class="cls-11" d="M757.68,1276.41a73.18,73.18,0,0,1-4.44,19.69,67.36,67.36,0,0,1-33.5,37.15,61.92,61.92,0,0,1-48.61,2.46,64.3,64.3,0,0,1-9.78-4.56,65.11,65.11,0,0,1-7.12-4.73,316.06,316.06,0,0,0,53.66-20.54A322.87,322.87,0,0,0,757.68,1276.41Z"/><path class="cls-11" d="M754.92,1249.75c-10.59,9.14-31.55,22-56.59,34.06s-47.92,20.47-61.39,23a74,74,0,0,1-3.84-7.6l-.16-.37c-.5-1.17-1-2.35-1.39-3.53a72.43,72.43,0,0,1-2.51-8.38c0-.11,0-.23-.07-.34a71.73,71.73,0,0,1-1.73-12.61,73.12,73.12,0,0,1,2.73-23.49,68.83,68.83,0,0,1,25.8-37.12,71.44,71.44,0,0,0-7.61,17.4,72.84,72.84,0,0,0-2.73,23.49,71.73,71.73,0,0,0,1.73,12.61,3.38,3.38,0,0,0,.08.34c0,.15.08.34.14.56,3.33,11.87,15.43,16.83,27.09,15.72,22.25-2.14,70.4-29.64,80.65-36C755.83,1249.3,754.37,1247.9,754.92,1249.75Z"/><path class="cls-12" d="M707.89,1305.88a322.87,322.87,0,0,0,49.79-29.47,71.15,71.15,0,0,1-1.19,8.37c-10.44,8.09-27.14,18.1-46.6,27.5-18.64,9-36,15.63-48.54,18.87a65.11,65.11,0,0,1-7.12-4.73A316.06,316.06,0,0,0,707.89,1305.88Z"/><path class="cls-12" d="M751.62,1240.89c.13.27.25.55.37.82a72.58,72.58,0,0,1,2.93,8c-10.6,9.14-31.55,22-56.59,34.06s-47.92,20.47-61.38,23a70.23,70.23,0,0,1-3.85-7.6c-.05-.12-.1-.25-.16-.37,12.78-1.55,36.07-9.66,61.6-22C721.07,1264,742.75,1250.1,751.62,1240.89Z"/><path class="cls-12" d="M627.14,1276.27l.21-4.65c8.91.45,32.18-7.48,56.59-19.28,29.12-14.08,47.91-27.53,51.42-33.55l3.75,2.45c-4.64,8-26.08,22.16-53.34,35.33C660.39,1268.84,636.83,1276.76,627.14,1276.27Z"/><path class="cls-12" d="M630.31,1252.76l-.67-4.6c10-1.62,27.36-8,45.27-16.66,18.77-9.07,35-19.06,42.36-26.06l3,3.46c-7.67,7.29-24.32,17.58-43.47,26.83C658.49,1244.56,640.69,1251.08,630.31,1252.76Z"/><path class="cls-12" d="M629,1288.88v-4.65c10.22,0,34.27-8.29,59.83-20.65,26.82-13,49.31-27.5,54.69-35.35l3.57,2.73c-5.88,8.57-28.55,23.38-56.42,36.85C664.14,1280.62,639.93,1288.89,629,1288.88Z"/><path class="cls-12" d="M671.21,1336.87l-.08-1.16-.52-1,.2-.12.24,0c8.83-.71,25.67-6.54,42.88-14.86S746,1302,752.47,1295.27l1.54,1.66c-6.64,6.87-21.64,16.39-39.17,24.86C697.15,1330.35,680.43,1336.12,671.21,1336.87Z"/><path class="cls-5" d="M692.58,1342.31a65.94,65.94,0,0,1-40.05-13.66L648,1325.2l5.5-1.49a314,314,0,0,0,53.17-20.36,321.12,321.12,0,0,0,49.35-29.2l5-3.65-.51,6.15c-2.13,25.72-17.28,48.38-39.52,59.14A65.12,65.12,0,0,1,692.58,1342.31Zm-31.87-14.81a59.69,59.69,0,0,0,57.81,3.23c18.64-9,31.87-27.17,35.56-48.3a336.1,336.1,0,0,1-45,26A330.33,330.33,0,0,1,660.71,1327.5Z"/><path class="cls-13" d="M789.57,1234.31c4,9.2-9,25.27-31.89,42.1a322.87,322.87,0,0,1-49.79,29.47,316.06,316.06,0,0,1-53.66,20.54c-27.05,7.32-47,7.16-51-2-3.62-8.35,6.72-22.36,25.82-37.48a71,71,0,0,0,2.5,8.38c-5.28,4.6-7.87,8.24-7,10.36s5.39,2.43,12.36,1.14c13.46-2.5,36.34-10.87,61.38-23s46-24.92,56.59-34.06c5.48-4.72,8.19-8.47,7.26-10.62s-5.22-2.42-12-1.21a69.7,69.7,0,0,0-4.37-7.48C769.16,1225.06,786,1226,789.57,1234.31Z"/><path class="cls-14" d="M631.15,1294.16c.13.38.26.75.4,1.13-5.28,4.59-7.87,8.23-7,10.35s5.39,2.43,12.36,1.14c8.93-1.66,22-5.9,37.11-12.1a10.52,10.52,0,0,0,0,3.92c-5.83,2.31-11.49,4.36-16.85,6.1-23.3,7.57-35.46,7.46-36.88,4.16C619.5,1306.93,621.92,1302.07,631.15,1294.16Z"/><path class="cls-11" d="M629.41,1290.81l.56.74A100.83,100.83,0,0,0,618.8,1302C620.85,1298.76,624.38,1295.06,629.41,1290.81Z"/><path class="cls-11" d="M630.52,1292.28l-.55-.73a2.75,2.75,0,0,1,.26-.22Z"/><path class="cls-14" d="M618.8,1302c-2.15,3.34-2.7,6.13-1.71,8.45s3.28,3.51,6.45,4c8.29,1.39,22.55-2.21,34.73-6.17,5.51-1.79,11.32-3.9,17.32-6.28a11.53,11.53,0,0,0,5.08,3.63c-8.86,3.57-17.45,6.6-25.51,9-28.71,8.49-41.19,6.21-43.15,1.68C610.92,1313.79,612.5,1309,618.8,1302Z"/><path class="cls-14" d="M706.71,1306.44a313.09,313.09,0,0,1-52.48,20c-27.05,7.32-47,7.16-51-2-3.62-8.35,6.72-22.36,25.82-37.48.19.84.41,1.67.63,2.5l-1.09-1.5c-11.08,9-23.52,21.44-19.82,30,1.43,3.3,4.82,5.09,9.3,5.84,10.54,1.75,27.08-2.21,38-5.45a298.09,298.09,0,0,0,30.68-11.08C692.1,1307.89,698.86,1307.63,706.71,1306.44Z"/><path class="cls-15" d="M675.59,1302c-6,2.38-11.81,4.49-17.32,6.28-12.18,4-26.44,7.56-34.73,6.17-3.17-.53-5.47-1.79-6.45-4s-.44-5.11,1.71-8.45A100.83,100.83,0,0,1,630,1291.55l.55.73c.2.63.41,1.25.63,1.88-9.23,7.91-11.65,12.77-10.81,14.7,1.42,3.3,13.58,3.41,36.88-4.16,5.36-1.74,11-3.79,16.85-6.1a7.88,7.88,0,0,0,.53,1.73A8,8,0,0,0,675.59,1302Z"/><path class="cls-16" d="M630,1291.55A100.83,100.83,0,0,0,618.8,1302c2.05-3.22,5.58-6.92,10.61-11.17Z"/><path class="cls-16" d="M630.52,1292.28l1.12,1.46-.49.42C630.93,1293.53,630.72,1292.91,630.52,1292.28Z"/><path class="cls-16" d="M742.07,1267.8a357.14,357.14,0,0,1-40.76,22.89c-8.71,4.21-17.39,8-25.72,11.33a8,8,0,0,1-1-1.69,7.88,7.88,0,0,1-.53-1.73c8.33-3.29,17-7.11,25.76-11.33a352.81,352.81,0,0,0,40.34-22.67c20.66-13.68,28.53-23.47,27.1-26.76-.85-2-6.08-3.23-18.21-.85l-.49-2.78-.16-.93c6.36-1.24,11.33-1.64,15-1.18s6.12,1.86,7.12,4.17C774,1244.41,757,1257.91,742.07,1267.8Z"/><path class="cls-15" d="M686.8,1307.18a298.09,298.09,0,0,1-30.68,11.08c-11,3.24-27.51,7.2-38,5.45-4.48-.75-7.87-2.54-9.3-5.84-3.7-8.53,8.74-21,19.82-30l1.09,1.5c.18.65.36,1.29.55,1.93a2.75,2.75,0,0,0-.26.22l-.56-.74c-5,4.25-8.56,8-10.61,11.17-6.3,7-7.88,11.81-6.79,14.33,2,4.53,14.44,6.81,43.15-1.68,8.06-2.38,16.65-5.41,25.51-9A25.9,25.9,0,0,0,686.8,1307.18Z"/><path class="cls-14" d="M629.41,1290.81l.56.74A100.83,100.83,0,0,0,618.8,1302C620.85,1298.76,624.38,1295.06,629.41,1290.81Z"/><path class="cls-16" d="M629.68,1289.4l1.08,1.49-.53.44C630,1290.69,629.86,1290.05,629.68,1289.4Z"/><path class="cls-16" d="M750.6,1272.59A335,335,0,0,1,704.91,1299c-6.07,2.94-12.14,5.67-18.11,8.18a25.9,25.9,0,0,1-6.13-1.53c7.46-3,15.1-6.38,22.76-10.08a331.13,331.13,0,0,0,45.2-26.12c24.85-17.41,31.37-28.87,29.42-33.4-1.09-2.51-5.56-4.4-14.66-4a94.89,94.89,0,0,0-14.82,2.11l-1,.21-.73-3.69c13.66-3,30.73-4.78,34.43,3.75C786.09,1245.57,764.12,1263.12,750.6,1272.59Z"/><path class="cls-5" d="M622.13,1334.39c-11.45,0-18.92-3-21.47-8.9-5.53-12.76,14.32-31,26.64-40.79l3.47-2.75,1,4.31a69.05,69.05,0,0,0,2.41,8.06l.66,1.81-1.46,1.27c-5.4,4.7-6.07,6.8-6.16,7.23a23,23,0,0,0,2.35.15,38.7,38.7,0,0,0,6.85-.76c13.64-2.53,36.89-11.24,60.68-22.74s45.24-24.39,56-33.65c5.65-4.88,6.36-7.05,6.45-7.49-.12.06-.76-.14-2.36-.14a37.65,37.65,0,0,0-6.47.68l-2.06.37-.94-1.87a68.3,68.3,0,0,0-4.19-7.18l-2.27-3.38,4-.91c26.12-6,42.79-4.08,46.93,5.48h0c4.46,10.32-7.5,26.9-32.81,45.49a326.64,326.64,0,0,1-50.23,29.73A319.41,319.41,0,0,1,655,1329.13C642,1332.65,630.88,1334.39,622.13,1334.39Zm5.31-42.58c-19,15.8-23.76,26.55-21.63,31.46,3.14,7.25,21.86,7.43,47.69.44a314,314,0,0,0,53.17-20.36,321.12,321.12,0,0,0,49.35-29.2c26.73-19.63,33.39-33.13,31-38.72h0c-2.11-4.85-12.86-8-36.65-3.11.49.83,1,1.66,1.42,2.5,5.17-.76,11.22-.87,13,3.2,1.52,3.5-1,7.78-8,13.86-11.25,9.7-32.63,22.58-57.2,34.45s-47.78,20.56-62.09,23.21c-5.66,1-13.42,1.9-15.45-2.79-1.38-3.2.55-7,6.27-12.31C628,1293.57,627.71,1292.69,627.44,1291.81Z"/><g class="cls-2"><path class="cls-3" d="M754.94,1250q-1.86,1.59-4.11,3.33c-.62-1.81-1.32-3.62-2.09-5.4l-.36-.82q-.68-1.51-1.41-3a68.74,68.74,0,0,0-4.37-7.48c-.19-.29-.38-.57-.58-.85a67.24,67.24,0,0,0-8-9.58,65.18,65.18,0,0,0-18.49-12.84,62,62,0,0,0-53.4.47,66.27,66.27,0,0,0-27.68,25.27,66.88,66.88,0,0,1,31-31.25,62,62,0,0,1,53.39-.47,64.93,64.93,0,0,1,18.49,12.85,67.3,67.3,0,0,1,8,9.58c.2.28.39.56.58.85a70.34,70.34,0,0,1,4.36,7.48c.49,1,1,2,1.41,3,.13.28.25.55.37.83A73.89,73.89,0,0,1,754.94,1250Z"/></g><path class="cls-5" d="M635.52,1309.9l-1-1.7a72.24,72.24,0,0,1-4-7.91q-.87-2-1.62-4a75,75,0,0,1-2.6-8.7c-7.79-33.41,8.12-68.07,37.82-82.43s65.15-4.41,84,23.76a72.61,72.61,0,0,1,4.54,7.79c.65,1.28,1.27,2.6,1.85,3.94h0a75.57,75.57,0,0,1,3,8.35l.52,1.74-1.38,1.19c-11.25,9.7-32.63,22.58-57.2,34.45s-47.78,20.56-62.09,23.21Zm57-105.71a59.46,59.46,0,0,0-25.94,6c-27.35,13.23-42,45.23-34.79,76.1a69.05,69.05,0,0,0,2.41,8.06c.45,1.26.95,2.5,1.49,3.74.82,1.91,1.73,3.77,2.71,5.57,13.84-3,36-11.38,58.72-22.35s43.44-23.32,54.57-32.47c-.66-2-1.42-4-2.27-6h0c-.53-1.24-1.1-2.46-1.7-3.65a68.3,68.3,0,0,0-4.19-7.18C731.5,1214.09,712.26,1204.19,692.51,1204.19Z"/><path class="cls-5" d="M1031.78,1470.17H576.49a62.58,62.58,0,0,1-57-36.84L406,1181.2C395.6,1158,392.81,1132,398.19,1108a106.89,106.89,0,0,1,8.49-24.13c7.74-15.71,18.37-28,31.58-36.64a37.68,37.68,0,0,1,20.5-5.89H891.42a38.56,38.56,0,0,1,35.9,24.83l135.39,359.28a33.05,33.05,0,0,1-30.93,44.71Zm-573-405.33A14.2,14.2,0,0,0,451,1067c-9.71,6.31-17.34,15.26-23.28,27.31a83.12,83.12,0,0,0-6.63,18.86c-4.28,19.06-2,39.8,6.34,58.43l113.45,252.12a39.06,39.06,0,0,0,35.58,23h455.29a9.57,9.57,0,0,0,8.94-12.94L905.34,1074.47a15,15,0,0,0-13.92-9.63Z"/><path class="cls-5" d="M1012,1468.21H576.49a60.64,60.64,0,0,1-55.23-35.69L407.81,1180.4a116,116,0,0,1-8.43-68.5,18,18,0,0,1,7.61-11.44,36.46,36.46,0,0,1,20.44-6.24H860.1a36.6,36.6,0,0,1,34.06,23.56L1021.21,1455a9.79,9.79,0,0,1-9.17,13.24ZM418.47,1116.35a96.38,96.38,0,0,0,7.2,56l113.45,252.12a41,41,0,0,0,37.37,24.14h421.4l-122-323.94a16.92,16.92,0,0,0-15.74-10.89H427.43A16.87,16.87,0,0,0,418.47,1116.35Z"/><ellipse class="cls-5" cx="533.88" cy="1278.28" rx="21.8" ry="23.98" transform="translate(-317.97 185.86) rotate(-15.28)"/><path class="cls-5" d="M421.89,1099.09l0,0,.15.35a.19.19,0,0,1,0-.07l.05.39v0l-.05.39a.06.06,0,0,1,0,0l-.15.35,0,0-.23.3,0,0-.3.23.07,0-.36.15.14,0-.4,0h.21l-.4,0a.55.55,0,0,1,.17,0l-.36-.16.08,0-.31-.24,0,0,.3.23.37.16h0l-.36-.15.05,0a3.55,3.55,0,0,1-.31-.23l0,0-.23-.3a.05.05,0,0,1,0,0l-.14-.35a2.3,2.3,0,0,0,.16.39,1.07,1.07,0,0,0,.36.4,1,1,0,0,0,.49.25l.37.05a1.39,1.39,0,0,0,.72-.19,1.5,1.5,0,0,0,.54-.55h0l.15-.35v0a1.55,1.55,0,0,0,0-.88,2.39,2.39,0,0,0-.15-.37,1.61,1.61,0,0,0-.55-.55h0l0,0h0a3.08,3.08,0,0,0-.38-.16l-.13,0a3.31,3.31,0,0,0-.55-.06,2.43,2.43,0,0,0-.54.08,1.68,1.68,0,0,0-.48.2,1.87,1.87,0,0,0-.35.26l0,0h0l-.24.31a1.61,1.61,0,0,0-.23.86,1.7,1.7,0,0,0,.25.88,1.72,1.72,0,0,0,.88.68,1.08,1.08,0,0,0,.59,0,1,1,0,0,0,.54-.17l.3-.23a1.47,1.47,0,0,0,.38-.65l0-.39a1.49,1.49,0,0,0-.2-.74Z"/><g class="cls-6"><path class="cls-5" d="M1380,1108.75c0-.32-.09-.64-.13-1l-.06-.12a.29.29,0,0,0-.13-.14.41.41,0,0,0-.3-.11.59.59,0,0,0-.26.07.53.53,0,0,0-.23.3c0,.32-.09.64-.13,1a.65.65,0,0,0,0,.34.64.64,0,0,0,.16.29.71.71,0,0,0,.46.19.68.68,0,0,0,.45-.19.65.65,0,0,0,.17-.63Z"/></g><path class="cls-3" d="M1426.77,1147.09c-19,238.81-292.42,356.45-518.19,292.81-21.15-6-41.2-15.51-58.16-29.45a171.38,171.38,0,0,1-52.2-74.52c-15.08-41.83-12.73-84.52,2.74-108a28.54,28.54,0,0,1,28-12.26l58.2,8.73a34.88,34.88,0,0,0,15.07-.86c27.93-8,44.8-28.43,54.56-56.82,30.78-10.58,57.45,27.29,84.19,64.61,54.2-9,104.25-25.26,148.82-50.91l97.9-164.48,96.07,90.66Z"/><path class="cls-5" d="M1291,1017.84c-20.34,43.44-43.64,85.34-67.48,126.9-8,13.83-16,27.57-24.49,41.12a9.9,9.9,0,0,1-3.87,3.81c-47.11,27.14-99.53,43.4-152.39,52.19a10.75,10.75,0,0,1-10.46-4.29c-16-21.34-30.43-45.62-53-58.74-6.7-3.3-12.82-4-19.05-2l6.66-6.66c-9.49,31.66-35.57,61.83-70.12,66.11-6.53.75-14-.72-20.35-1.59l-35.12-5-14.22-2a16.39,16.39,0,0,0-15.13,6c-24.41,41.48-6,106.11,22.77,142.08,29.87,39.16,67.54,51.37,114.21,60,112.55,21.31,234.71,1.15,330.37-63.21a330.14,330.14,0,0,0,144.22-225.78,3.21,3.21,0,0,1,6.37.57c.75,97.81-56.14,191.36-137.14,244.89-100.65,68.76-229.56,91.56-348.75,69.45-53.16-9.93-95.68-25.45-129.69-70.08S761.9,1280.76,786.7,1228l2.62-4.64c7.06-13,22.09-20.85,36.64-20.17a91.49,91.49,0,0,1,10.22,1.29c5.05.79,37.89,6,43.81,6.9,4.11.54,10.92,2.11,14.88,1.68,4.59-.38,9-2.25,13.2-3.93,19.69-8.38,32-26.67,38.92-46.77a9.46,9.46,0,0,1,6.39-5.83c44.71-13.19,74,39.58,96.36,68.52l-10.48-4.33c51-8.48,100.83-24,145.23-49.63l-3.86,3.81c23.89-41.49,49.53-81.94,76.14-121.74,9.06-13.18,18.08-26.37,27.7-39.21a3.83,3.83,0,0,1,6.55,3.9Z"/><path class="cls-5" d="M1275.38,1401.33a11.76,11.76,0,0,1-11.17-15.39c25.64-78.86-21.64-166.86-81-192.84a11.75,11.75,0,0,1,9.42-21.53c68.61,30,123.37,131.18,94,221.64A11.75,11.75,0,0,1,1275.38,1401.33Z"/><g class="cls-6"><path class="cls-5" d="M1426.77,1147.09c-19,238.81-292.42,356.45-518.19,292.81-21.15-6-41.2-15.51-58.16-29.45a171.38,171.38,0,0,1-52.2-74.52c30.43,36.67,62.33,52.23,79.54,59,30.74,12,58.64,13.14,94.73,14.57a466.82,466.82,0,0,0,65.44-1.88c104.07-10.91,182.84-63,197-72.53,33.45-22.63,76.49-51.74,109.77-108.4,27.69-47.15,36.2-92.25,39.16-120.11Z"/></g><path class="cls-3" d="M627.66,767.16A506,506,0,0,0,851.56,979c8.05,3.91,16.31,7.6,24.7,11.16a508.14,508.14,0,0,0,76.89,25.21A504.81,504.81,0,0,0,1101,1028.78q14.61-.87,29.09-2.52c176.61-20.44,337.3-133.07,410.75-308.77C1649.11,458.69,1527,161.16,1268.28,52.9A507.22,507.22,0,0,0,1116,15.35q-9-.84-18-1.23-24.09-1.24-48-.19A510.68,510.68,0,0,0,840.09,69.77q-15.42,7.91-30.32,16.88A507.44,507.44,0,0,0,603.69,325.52C541.4,474.38,555.36,636,627.66,767.16Z"/><path class="cls-5" d="M1072.27,1031a505.95,505.95,0,0,1-119.43-14.31,510.93,510.93,0,0,1-77.1-25.28c-9.21-3.91-17.31-7.57-24.77-11.19a513.86,513.86,0,0,1-48-26.36,508,508,0,0,1-176.5-186c-75.63-137.15-84.39-298.55-24-442.82A509,509,0,0,1,809.07,85.49c9.72-5.87,19.95-11.57,30.4-16.93a512,512,0,0,1,210.5-56c15.91-.7,32.1-.64,48.12.19,6.41.29,12.32.69,18,1.24A508.17,508.17,0,0,1,1268.8,51.65C1527.86,160,1650.46,459,1542.1,718c-71,169.78-228.79,288.41-411.84,309.59-9.62,1.09-19.43,1.94-29.17,2.52S1081.87,1031,1072.27,1031ZM1072,14.81c-7.33,0-14.65.16-21.91.48A509.33,509.33,0,0,0,840.71,71c-10.39,5.34-20.57,11-30.24,16.84A506.19,506.19,0,0,0,604.93,326c-60,143.5-51.32,304,23.91,440.46a505.33,505.33,0,0,0,175.56,185,511.91,511.91,0,0,0,47.74,26.22c7.43,3.61,15.49,7.25,24.65,11.13A509.52,509.52,0,0,0,953.47,1014a504.1,504.1,0,0,0,147.46,13.42c9.69-.58,19.45-1.43,29-2.52C1312,1003.85,1469,885.85,1539.6,717c107.79-257.67-14.16-555-271.85-662.82A505.52,505.52,0,0,0,1115.89,16.7c-5.69-.54-11.55-.94-17.93-1.23C1089.33,15,1080.65,14.81,1072,14.81Z"/><g class="cls-6"><path class="cls-5" d="M1540.85,717.48c-73.44,175.72-234.15,288.36-410.76,308.77q-14.47,1.66-29.07,2.52a508.77,508.77,0,0,1-224.77-38.65c-8.37-3.59-16.63-7.26-24.7-11.15a518.68,518.68,0,0,1-47.87-26.31,504.88,504.88,0,0,1-176-185.52A511.07,511.07,0,0,1,577.58,637,506.94,506.94,0,0,0,795.7,838.61c8,3.9,16.3,7.57,24.7,11.15a506.5,506.5,0,0,0,224.74,38.67q14.64-.88,29.1-2.54c176.61-20.41,337.29-133,410.76-308.77a505.46,505.46,0,0,0,26-311.54C1588.4,398.47,1604.76,564.73,1540.85,717.48Z"/></g><path class="cls-5" d="M1072.26,1040a515.24,515.24,0,0,1-121.58-14.57,520.89,520.89,0,0,1-78.45-25.72c-9.39-4-17.62-7.71-25.22-11.39a525.76,525.76,0,0,1-48.82-26.81A517.16,517.16,0,0,1,618.53,772.19c-77-139.59-85.89-303.86-24.46-450.7A518.13,518.13,0,0,1,804.37,77.73c9.91-6,20.33-11.78,31-17.24a521.3,521.3,0,0,1,214.24-57c16.2-.71,32.68-.66,49,.19,6.5.29,12.55.7,18.43,1.26A517.08,517.08,0,0,1,1272.3,43.28C1536,153.6,1660.76,457.85,1550.47,721.52c-72.24,172.8-232.86,293.54-419.17,315.1-9.8,1.11-19.77,2-29.67,2.57S1082,1040,1072.26,1040ZM1072,23.88c-7.2,0-14.38.16-21.5.47A500.69,500.69,0,0,0,844.85,79c-10.21,5.24-20.2,10.81-29.69,16.54a497,497,0,0,0-201.85,234c-59,140.93-50.4,298.6,23.48,432.58A496.16,496.16,0,0,0,809.19,943.8a502,502,0,0,0,46.89,25.76c7.31,3.55,15.24,7.12,24.25,11a500.11,500.11,0,0,0,141,36,493.93,493.93,0,0,0,79.08,1.84c9.49-.57,19.09-1.4,28.5-2.47,178.81-20.69,333-136.57,402.31-302.43,105.86-253.06-13.91-545.07-267-650.95a496.63,496.63,0,0,0-149.14-36.78c-5.62-.53-11.33-.92-17.56-1.2C1089,24.1,1080.5,23.88,1072,23.88Z"/><path class="cls-5" d="M1072.26,1043.05A518.51,518.51,0,0,1,950,1028.39a523.11,523.11,0,0,1-78.9-25.87c-9.45-4-17.73-7.75-25.39-11.46a531.83,531.83,0,0,1-49.09-27A520.18,520.18,0,0,1,615.88,773.65c-77.43-140.4-86.39-305.63-24.6-453.33A521,521,0,0,1,802.81,75.14c10-6,20.44-11.85,31.14-17.34A524.16,524.16,0,0,1,1049.44.49c16.3-.71,32.87-.65,49.27.2,6.54.29,12.64.71,18.57,1.27a519.93,519.93,0,0,1,156.18,38.53c265.22,111,390.74,417,279.8,682.19-72.67,173.82-234.22,295.26-421.61,316.94-9.86,1.12-19.88,2-29.83,2.59S1082.1,1043.05,1072.26,1043.05ZM1072,26.9c-7.15,0-14.28.16-21.35.47A497.53,497.53,0,0,0,846.24,81.73c-10.16,5.21-20.08,10.74-29.52,16.44A493.88,493.88,0,0,0,616.1,330.7c-58.6,140.08-50.1,296.79,23.34,430A493.21,493.21,0,0,0,810.78,941.24a501.74,501.74,0,0,0,46.61,25.59c7.28,3.53,15.16,7.09,24.12,10.89a497.39,497.39,0,0,0,74.8,24.53,491.75,491.75,0,0,0,143.94,13.1c9.43-.57,19-1.39,28.33-2.46,177.71-20.56,330.94-135.74,399.86-300.58,105.21-251.53-13.83-541.77-265.36-647a493.07,493.07,0,0,0-148.22-36.55c-5.61-.54-11.27-.92-17.44-1.2Q1084.7,26.9,1072,26.9Z"/><path class="cls-5" d="M704.6,872.14c299.13,205.68,702.8,54.38,721.45-304.69,12.69-244.29-216.7-445.32-452.11-442.49C802.61,127,636.24,204,566.75,470.78c0,0-12.52,122.86,21.37,204.33s80.6,155,80.6,155Z"/><path class="cls-17" d="M1426,567.45c-18.64,359.06-422.31,510.36-721.43,304.7l-7.27-8.53c327.86,56,652.64-142.52,678.25-505.22C1410.83,420.8,1429.94,492.06,1426,567.45Z"/><path class="cls-5" d="M996,1028q-21.75,0-43.67-1.73l-1.72-.27A520.88,520.88,0,0,1,872,1000.27c-9.4-4-17.65-7.71-25.26-11.4A526.86,526.86,0,0,1,797.88,962,517.84,517.84,0,0,1,618,772.48C541,632.73,532,468.27,593.52,321.26A517.87,517.87,0,0,1,759.86,107.11l1.95-1.17C822.33,77.63,892.75,62.8,971.13,61.86c139.45-1.62,283.44,60.32,384.86,165.86,93.15,97,140.9,218.8,134.44,343.09-7,135.14-61.38,251-157.15,335C1243.43,984.56,1122.41,1028,996,1028Zm-41.07-23.62c135.78,10.5,268.35-31.45,363.86-115.2,91.2-80,143-190.48,149.68-319.54C1474.57,451.52,1429,335.5,1340.1,243c-97.28-101.23-234.89-160.72-368.71-159.1-74.76.9-141.78,14.87-199.21,41.52A495.84,495.84,0,0,0,613.85,329.76C555,470.53,563.51,628,637.3,761.84A495.63,495.63,0,0,0,809.5,943.3,503,503,0,0,0,856.33,969c7.31,3.54,15.23,7.12,24.23,10.94A498.62,498.62,0,0,0,954.89,1004.41Z"/><ellipse class="cls-3" cx="1519.71" cy="558.62" rx="131.99" ry="181.64" transform="translate(-8.91 24.86) rotate(-0.93)"/><g class="cls-6"><path class="cls-5" d="M1532.17,739.61c-67.71,7.85-128.31-56.22-141.71-146a97.4,97.4,0,0,0,41.36,4.17c72.58-8.42,160.44-90.32,153.58-190.27-.47-6.71-35.78-19.23-36.76-25.7,54.25,17.53,96.95,81.23,102.5,161.57C1658,643.36,1604.74,731.2,1532.17,739.61Z"/></g><path class="cls-5" d="M1520.81,753.73c-27.24,0-53.61-10.05-77-29.46-39.55-32.87-64.69-87.36-69-149.5-7.36-106.86,51.33-201.29,130.83-210.5,31.75-3.69,62.84,6.24,89.87,28.71,39.55,32.86,64.69,87.36,69,149.5h0c7.35,106.86-51.34,201.29-130.83,210.5A112.29,112.29,0,0,1,1520.81,753.73Zm-2.35-363.3a84.69,84.69,0,0,0-9.66.56c-65.43,7.58-113.46,89.2-107.08,181.94,3.72,54,25.89,102.87,59.32,130.65,21.24,17.65,45.3,25.49,69.58,22.68,65.43-7.59,113.47-89.2,107.09-181.94-3.72-54-25.9-102.87-59.32-130.65C1560,398.36,1539.42,390.43,1518.46,390.43Z"/><ellipse class="cls-3" cx="1563.19" cy="570.81" rx="144.16" ry="107.55" transform="translate(964.42 2123.51) rotate(-88.97)"/><path class="cls-5" d="M1562.11,716.46a84.06,84.06,0,0,1-34-7.36c-56.77-25-87.32-107.3-68.11-183.48,10.76-42.66,35.1-76,66.79-91.48,23.32-11.4,48.06-12,71.55-1.62,56.76,25,87.31,107.3,68.11,183.48h0c-10.76,42.66-35.1,76-66.79,91.48A85,85,0,0,1,1562.11,716.46ZM1564.28,428a82.29,82.29,0,0,0-36.29,8.68c-30.94,15.12-54.74,47.8-65.29,89.65-18.89,74.91,11,155.75,66.51,180.21,22.71,10,46.63,9.46,69.19-1.57,30.94-15.11,54.74-47.79,65.29-89.64h0c18.89-74.91-11-155.75-66.51-180.21A81.26,81.26,0,0,0,1564.28,428Z"/><g class="cls-6"><path class="cls-5" d="M1466,638.71c-8.47-26-9.84-54.36-5.27-81.41,24.28,57.59,79.59,78,128.1,45.08,31.36-21.22,52.65-59.83,59.69-101.7,1.56,3.62,3,7.44,4.25,11.38,21.51,66.14-2.85,148.11-54.44,183.08S1487.55,704.81,1466,638.71Z"/></g><path class="cls-5" d="M1564.62,728.61c-20.12,0-39.71-7.49-57.19-22-32-26.46-53.09-73.74-56.51-126.48-5.84-89.87,38.68-166.34,101.34-174.11,23.63-2.94,46.91,4.45,67.3,21.32,32,26.46,53.09,73.74,56.51,126.48h0c5.84,89.87-38.68,166.35-101.34,174.11A81.91,81.91,0,0,1,1564.62,728.61Zm-2.42-296.25a54.92,54.92,0,0,0-6.64.41c-46.91,5.81-82.54,72.52-77.8,145.67,3,45.49,20.46,85.67,46.82,107.49,14.55,12,30.75,17.34,46.84,15.35,46.92-5.81,82.55-72.52,77.81-145.67-3-45.49-20.46-85.67-46.83-107.49C1589.86,437.74,1576.08,432.36,1562.2,432.36Z"/><g class="cls-18"><path class="cls-3" d="M1084.23,244.64S872,260.75,756.61,384.44l-.36.39a200.51,200.51,0,0,0-48.79,93c-10.26,45.94-10.6,79.11-9.78,108.32,2.56,88.83,20.37,130,20.37,130-51.88-45.49-81.88-98-84.74-171.92-.26-7.3-.26-14.83,0-22.55.05-1.79.14-3.55.26-5.33,0,0,0,0,0-.1a496.79,496.79,0,0,1,9.62-58.86c15.52-68.76,51.72-158.9,136.14-202.67C937.18,172.82,1091.28,235.15,1084.23,244.64Z"/></g><g class="cls-18"><ellipse class="cls-3" cx="1254.05" cy="470.04" rx="67.89" ry="79.12" transform="translate(-82.05 378.37) rotate(-16.62)"/></g><g class="cls-18"><ellipse class="cls-3" cx="1295.17" cy="607.78" rx="28.04" ry="32.67" transform="translate(-132.57 516.07) rotate(-21.46)"/></g><path class="cls-19" d="M449.34,351.19a145.41,145.41,0,1,0-48.7,48.66L468.05,415Z"/><g class="cls-18"><path class="cls-3" d="M313,158.29A145.68,145.68,0,0,1,470.33,272.81,145.66,145.66,0,1,0,179.78,287a147.33,147.33,0,0,0,2.43,15.44A145.68,145.68,0,0,1,313,158.29Z"/></g><path class="cls-5" d="M324.71,433.83A158.52,158.52,0,0,1,167.36,291.51c-8.93-86.92,54.54-164.91,141.46-173.84A158.48,158.48,0,0,1,463.2,352.9l17.14,58.46a12.81,12.81,0,0,1-15.09,16.11l-62.49-14A157,157,0,0,1,341.2,433,160.48,160.48,0,0,1,324.71,433.83Zm.55-291.37a133.82,133.82,0,0,0-13.82.71C238.57,150.65,185.37,216,192.85,288.9A132.89,132.89,0,0,0,394,388.9a12.85,12.85,0,0,1,9.46-1.55l46.19,10.36L437.05,354.8a12.83,12.83,0,0,1,1.36-10.29,132.85,132.85,0,0,0-113.15-202Z"/><g class="cls-6"><path class="cls-5" d="M450.16,349.8a168.27,168.27,0,0,1-270.63-82.17,147.5,147.5,0,0,0,.57,22.58A145.7,145.7,0,0,0,400.64,399.85L468.05,415l-18.71-63.78C449.63,350.73,449.89,350.26,450.16,349.8Z"/></g><path class="cls-3" d="M371.59,234.42h0c-12.61-12.6-33-10.34-45.65,2.26l-2,2-2-2c-12.6-12.6-33-14.86-45.65-2.26h0a32.3,32.3,0,0,0,0,45.66l2,2L318,321.67a8.49,8.49,0,0,0,12,0L369.63,282l2-2A32.28,32.28,0,0,0,371.59,234.42Z"/></g></g></svg>