<svg xmlns="http://www.w3.org/2000/svg" viewBox="0 0 3651.13 3964.49"><defs><style>.cls-1{fill:#fff;}</style></defs><g id="Layer_2" data-name="Layer 2"><g id="Layer_1-2" data-name="Layer 1"><path class="cls-1" d="M2947.79,980.86c4.88.73,7.63,11.36,7.74,26.65a17.81,17.81,0,0,0,12.46,16.85c14.58,4.58,24,10.33,23.21,15.21s-11.36,7.63-26.64,7.74a17.81,17.81,0,0,0-16.86,12.46c-4.58,14.6-10.33,24-15.21,23.25s-7.66-11.38-7.75-26.67a17.82,17.82,0,0,0-12.47-16.87c-14.6-4.58-24-10.34-23.23-15.21s11.37-7.63,26.67-7.74a17.82,17.82,0,0,0,16.86-12.48C2937.13,989.48,2942.88,980.12,2947.79,980.86Z"/><path class="cls-1" d="M488.06,3052.83c-1.05,4.72-11.64,6.7-26.6,5.77a17.48,17.48,0,0,0-17.34,11.06c-5.47,14-11.73,22.74-16.45,21.69s-6.7-11.64-5.77-26.6a17.48,17.48,0,0,0-11.06-17.34c-14-5.47-22.77-11.73-21.73-16.46s11.66-6.73,26.62-5.78a17.48,17.48,0,0,0,17.36-11.06c5.47-14,11.73-22.75,16.46-21.71s6.7,11.64,5.76,26.62a17.49,17.49,0,0,0,11.08,17.35C480.35,3041.82,489.11,3048.08,488.06,3052.83Z"/><path class="cls-1" d="M2850.06,332.44c4.52,1.74,4.9,12.51,1.77,27.17a17.45,17.45,0,0,0,8.37,18.78c13,7.48,20.74,15,19,19.48s-12.5,4.91-27.16,1.77a17.49,17.49,0,0,0-18.79,8.37c-7.48,13-15,20.78-19.49,19.05s-4.93-12.53-1.78-27.19a17.47,17.47,0,0,0-8.37-18.8c-13-7.48-20.76-15-19-19.49s12.5-4.9,27.17-1.76a17.49,17.49,0,0,0,18.8-8.39C2838,338.44,2845.52,330.7,2850.06,332.44Z"/><path class="cls-1" d="M3635.92,3188.3c-4.65-3.29-15.45,3.39-27.74,16.07a20.61,20.61,0,0,1-23.88,4.12c-15.83-7.83-28.24-10.51-31.52-5.85s3.39,15.45,16.07,27.75a20.59,20.59,0,0,1,4.11,23.87c-7.83,15.84-10.52,28.28-5.87,31.56s15.5-3.38,27.78-16.07a20.59,20.59,0,0,1,23.89-4.14c15.85,7.84,28.25,10.52,31.54,5.86s-3.39-15.45-16.08-27.76a20.57,20.57,0,0,1-4.11-23.89C3637.94,3204,3640.61,3191.6,3635.92,3188.3Z"/><path class="cls-1" d="M3258.06,1724.69c-4.65-3.29-15.45,3.39-27.75,16.07a20.59,20.59,0,0,1-23.87,4.12c-15.83-7.83-28.24-10.5-31.53-5.85s3.4,15.45,16.07,27.75a20.59,20.59,0,0,1,4.12,23.87c-7.83,15.84-10.53,28.28-5.87,31.56s15.49-3.38,27.78-16.07a20.57,20.57,0,0,1,23.89-4.13c15.84,7.83,28.25,10.51,31.54,5.85s-3.39-15.45-16.09-27.76a20.6,20.6,0,0,1-4.11-23.89C3260.08,1740.4,3262.74,1728,3258.06,1724.69Z"/><circle class="cls-1" cx="2213.68" cy="1179.97" r="16.74"/><circle class="cls-1" cx="2427.17" cy="629.5" r="15.62" transform="translate(676.79 2424.94) rotate(-60.27)"/><path class="cls-1" d="M2715.85,910.48a15.63,15.63,0,1,1-21.41-5.46A15.63,15.63,0,0,1,2715.85,910.48Z"/><circle class="cls-1" cx="2151.46" cy="594.54" r="19.84" transform="translate(-51.01 232.06) rotate(-6.1)"/><circle class="cls-1" cx="2101.86" cy="3642.84" r="23.63" transform="translate(-2063.41 3060.9) rotate(-52.06)"/><circle class="cls-1" cx="3327.88" cy="2216.86" r="16.74" transform="translate(-328.37 597.88) rotate(-9.79)"/><circle class="cls-1" cx="1370.65" cy="3404.35" r="23.63" transform="translate(-2284.89 3728.91) rotate(-73.14)"/><circle class="cls-1" cx="3140.19" cy="3757.97" r="17.02" transform="translate(-1234.96 5958.24) rotate(-76.82)"/><circle class="cls-1" cx="682.94" cy="3130.38" r="8.61" transform="translate(-2013.48 1399.78) rotate(-45)"/><circle class="cls-1" cx="842.94" cy="3225.38" r="8.61" transform="translate(-2033.8 1540.74) rotate(-45)"/><path class="cls-1" d="M2317.59,384.32a10.21,10.21,0,1,1-14-3.57A10.19,10.19,0,0,1,2317.59,384.32Z"/><path class="cls-1" d="M1594.39,2446.82a12.15,12.15,0,1,0,1,17.15A12.15,12.15,0,0,0,1594.39,2446.82Z"/><path class="cls-1" d="M3080.71,2804.26a12.15,12.15,0,1,0,1,17.15A12.15,12.15,0,0,0,3080.71,2804.26Z"/><circle class="cls-1" cx="776.3" cy="723.86" r="11" transform="translate(-280.5 822.81) rotate(-48.35)"/><circle class="cls-1" cx="2214.05" cy="1599.15" r="8.76" transform="translate(-482.29 2033.95) rotate(-45)"/><circle class="cls-1" cx="639.45" cy="1485.15" r="17.76" transform="translate(-790.92 731.1) rotate(-38.91)"/><path class="cls-1" d="M3553.51,227.07c0,4.47-9.16,8.37-22.83,10.51A16.14,16.14,0,0,0,3517.25,251c-2.14,13.68-6,22.83-10.5,22.83s-8.36-9.15-10.51-22.82a16.13,16.13,0,0,0-13.42-13.43c-13.69-2.14-22.87-6-22.87-10.51s9.17-8.39,22.85-10.52a16.12,16.12,0,0,0,13.44-13.43c2.15-13.69,6-22.84,10.51-22.84s8.36,9.15,10.5,22.84a16.13,16.13,0,0,0,13.44,13.43C3544.36,218.68,3553.51,222.58,3553.51,227.07Z"/><path class="cls-1" d="M502,935.21c0,4.46-9.16,8.36-22.83,10.5a16.15,16.15,0,0,0-13.43,13.43c-2.14,13.67-6,22.83-10.5,22.83s-8.36-9.16-10.51-22.83a16.14,16.14,0,0,0-13.42-13.43c-13.69-2.14-22.87-6-22.87-10.5s9.17-8.39,22.85-10.52a16.14,16.14,0,0,0,13.44-13.43c2.15-13.69,6-22.85,10.51-22.85s8.36,9.16,10.5,22.85a16.14,16.14,0,0,0,13.44,13.43C492.83,926.82,502,930.72,502,935.21Z"/><path class="cls-1" d="M2345,2221.52c0,4.46-9.16,8.36-22.83,10.5a16.15,16.15,0,0,0-13.43,13.43c-2.14,13.67-6,22.83-10.5,22.83s-8.36-9.16-10.51-22.83a16.14,16.14,0,0,0-13.42-13.43c-13.69-2.14-22.87-6-22.87-10.5s9.17-8.39,22.85-10.52a16.14,16.14,0,0,0,13.44-13.43c2.15-13.69,6-22.85,10.51-22.85s8.36,9.16,10.5,22.85a16.15,16.15,0,0,0,13.45,13.43C2335.81,2213.13,2345,2217,2345,2221.52Z"/><circle class="cls-1" cx="887.16" cy="1092.01" r="17.02"/><path class="cls-1" d="M2050.73,3419.09a9.67,9.67,0,1,0,2.34,13.47A9.68,9.68,0,0,0,2050.73,3419.09Z"/><circle class="cls-1" cx="2408.59" cy="3516.87" r="19.61" transform="translate(-1750.03 4452.56) rotate(-68.27)"/><path class="cls-1" d="M1005.41,1891.12c-4.66-3.28-15.45,3.4-27.75,16.07a20.59,20.59,0,0,1-23.87,4.12c-15.83-7.83-28.24-10.5-31.53-5.85s3.39,15.46,16.07,27.75a20.61,20.61,0,0,1,4.12,23.88c-7.84,15.84-10.53,28.27-5.87,31.56s15.49-3.39,27.77-16.08a20.59,20.59,0,0,1,23.89-4.13c15.85,7.84,28.26,10.51,31.54,5.86s-3.39-15.45-16.08-27.76a20.6,20.6,0,0,1-4.11-23.9C1007.42,1906.83,1010.09,1894.43,1005.41,1891.12Z"/><path class="cls-1" d="M1734.41,3866.12c-4.66-3.28-15.45,3.4-27.75,16.07a20.59,20.59,0,0,1-23.87,4.12c-15.83-7.83-28.24-10.5-31.53-5.85s3.39,15.46,16.07,27.75a20.61,20.61,0,0,1,4.12,23.88c-7.84,15.84-10.53,28.27-5.87,31.56s15.49-3.39,27.77-16.08a20.59,20.59,0,0,1,23.89-4.13c15.85,7.84,28.26,10.51,31.54,5.86s-3.39-15.45-16.08-27.76a20.6,20.6,0,0,1-4.11-23.9C1736.42,3881.83,1739.09,3869.43,1734.41,3866.12Z"/><path class="cls-1" d="M1821.49,2823.36c-4.66-3.29-15.45,3.39-27.75,16.07a20.59,20.59,0,0,1-23.87,4.12c-15.83-7.83-28.24-10.5-31.53-5.85s3.39,15.45,16.07,27.75a20.59,20.59,0,0,1,4.12,23.87c-7.84,15.84-10.53,28.28-5.87,31.56s15.49-3.38,27.77-16.07a20.58,20.58,0,0,1,23.89-4.13c15.85,7.83,28.26,10.51,31.54,5.85s-3.39-15.45-16.08-27.76a20.59,20.59,0,0,1-4.11-23.89C1823.5,2839.07,1826.17,2826.66,1821.49,2823.36Z"/><circle class="cls-1" cx="455.1" cy="2224.13" r="16.74"/><circle class="cls-1" cx="585.1" cy="2552.13" r="8.76" transform="translate(-1633.26 1161.23) rotate(-45)"/><circle class="cls-1" cx="2231.05" cy="1972.49" r="16.74"/><circle class="cls-1" cx="2529.42" cy="2859.67" r="8.76" transform="translate(-1281.24 2626.15) rotate(-45)"/><circle class="cls-1" cx="3553.05" cy="1075.06" r="17.76" transform="translate(113.02 2470.09) rotate(-38.91)"/><path class="cls-1" d="M1417.1,1407c0,4.47-9.15,8.36-22.83,10.51a16.13,16.13,0,0,0-13.42,13.42c-2.15,13.68-6,22.83-10.51,22.83s-8.36-9.15-10.5-22.83a16.13,16.13,0,0,0-13.43-13.42c-13.68-2.14-22.86-6-22.86-10.51s9.17-8.39,22.84-10.52a16.13,16.13,0,0,0,13.45-13.43c2.14-13.69,6-22.84,10.5-22.84s8.36,9.15,10.51,22.84a16.12,16.12,0,0,0,13.44,13.43C1408,1398.59,1417.1,1402.49,1417.1,1407Z"/><path class="cls-1" d="M2733.57,1724.12c0,4.46-9.15,8.36-22.83,10.5a16.14,16.14,0,0,0-13.42,13.43c-2.15,13.67-6,22.83-10.51,22.83s-8.36-9.16-10.5-22.83a16.14,16.14,0,0,0-13.43-13.43c-13.68-2.14-22.86-6-22.86-10.5s9.17-8.39,22.84-10.52a16.14,16.14,0,0,0,13.45-13.43c2.14-13.69,6-22.85,10.5-22.85s8.36,9.16,10.51,22.85a16.14,16.14,0,0,0,13.44,13.43C2724.43,1715.73,2733.57,1719.63,2733.57,1724.12Z"/><path class="cls-1" d="M93.56,2240.43c0,4.46-9.16,8.36-22.84,10.5a16.14,16.14,0,0,0-13.42,13.43c-2.14,13.67-6,22.83-10.51,22.83s-8.36-9.16-10.5-22.83a16.13,16.13,0,0,0-13.43-13.43c-13.68-2.14-22.86-6-22.86-10.5s9.17-8.39,22.85-10.52a16.14,16.14,0,0,0,13.44-13.43c2.14-13.69,6-22.85,10.5-22.85s8.37,9.16,10.51,22.85a16.14,16.14,0,0,0,13.44,13.43C84.41,2232,93.56,2235.94,93.56,2240.43Z"/><circle class="cls-1" cx="1699.75" cy="901.92" r="17.02"/><path class="cls-1" d="M2863.32,3229a9.67,9.67,0,1,0,2.35,13.47A9.67,9.67,0,0,0,2863.32,3229Z"/><circle class="cls-1" cx="3221.19" cy="3326.77" r="19.61" transform="translate(-1061.64 5087.71) rotate(-68.27)"/><path class="cls-1" d="M1609,446c-4.65-3.28-15.45,3.4-27.74,16.07a20.59,20.59,0,0,1-23.87,4.12c-15.84-7.83-28.25-10.5-31.53-5.85s3.39,15.46,16.07,27.75A20.59,20.59,0,0,1,1546,512c-7.83,15.85-10.52,28.28-5.87,31.57s15.5-3.39,27.78-16.08a20.59,20.59,0,0,1,23.89-4.13c15.85,7.84,28.26,10.51,31.54,5.86s-3.39-15.46-16.08-27.76a20.59,20.59,0,0,1-4.11-23.9C1611,461.74,1613.69,449.34,1609,446Z"/><path class="cls-1" d="M2850.48,633.05a10.21,10.21,0,1,1-14-3.57A10.19,10.19,0,0,1,2850.48,633.05Z"/><circle class="cls-1" cx="1309.18" cy="972.59" r="11" transform="translate(-287.63 1304.4) rotate(-48.35)"/><path class="cls-1" d="M2583.61,3667.82a9.67,9.67,0,1,0,2.35,13.47A9.67,9.67,0,0,0,2583.61,3667.82Z"/><circle class="cls-1" cx="987.99" cy="2472.86" r="16.74"/><circle class="cls-1" cx="1117.99" cy="2800.86" r="8.76" transform="translate(-1653.06 1610.89) rotate(-45)"/><circle class="cls-1" cx="2763.94" cy="2221.22" r="16.74"/><circle class="cls-1" cx="324.97" cy="893.87" r="17.76" transform="translate(-489.32 402.41) rotate(-38.91)"/><path class="cls-1" d="M2261,46.79c0,4.47-9.16,8.37-22.83,10.51a16.13,16.13,0,0,0-13.43,13.42c-2.14,13.68-6,22.84-10.51,22.84s-8.36-9.16-10.5-22.83a16.13,16.13,0,0,0-13.43-13.43c-13.68-2.14-22.86-6-22.86-10.51s9.17-8.39,22.85-10.52a16.12,16.12,0,0,0,13.44-13.43c2.14-13.69,6-22.84,10.5-22.84s8.37,9.15,10.51,22.84a16.12,16.12,0,0,0,13.44,13.43C2251.88,38.4,2261,42.3,2261,46.79Z"/><path class="cls-1" d="M187.5,343.93c0,4.46-9.16,8.36-22.84,10.5a16.14,16.14,0,0,0-13.42,13.43c-2.14,13.67-6,22.83-10.51,22.83s-8.36-9.16-10.5-22.83a16.14,16.14,0,0,0-13.43-13.43c-13.68-2.14-22.86-6-22.86-10.5s9.17-8.39,22.85-10.52A16.14,16.14,0,0,0,130.23,320c2.14-13.69,6-22.85,10.5-22.85s8.37,9.16,10.51,22.85a16.14,16.14,0,0,0,13.44,13.43C178.35,335.54,187.5,339.44,187.5,343.93Z"/><path class="cls-1" d="M907.48,71.24c0,4.46-9.16,8.36-22.83,10.5a16.14,16.14,0,0,0-13.43,13.43c-2.14,13.67-6,22.83-10.5,22.83s-8.37-9.16-10.51-22.83a16.14,16.14,0,0,0-13.43-13.43c-13.68-2.14-22.86-6-22.86-10.5s9.17-8.39,22.85-10.52a16.14,16.14,0,0,0,13.44-13.43c2.15-13.69,6-22.85,10.51-22.85s8.36,9.16,10.5,22.85a16.14,16.14,0,0,0,13.44,13.43C898.33,62.85,907.48,66.75,907.48,71.24Z"/><circle class="cls-1" cx="2094.11" cy="2925.59" r="19.61" transform="translate(-1398.82 3788.01) rotate(-68.27)"/><path class="cls-1" d="M1486.93,2144.84c-4.66-3.28-15.46,3.4-27.75,16.07a20.59,20.59,0,0,1-23.87,4.12c-15.84-7.82-28.25-10.5-31.53-5.85s3.39,15.46,16.07,27.75a20.59,20.59,0,0,1,4.11,23.88c-7.83,15.84-10.52,28.27-5.87,31.56s15.5-3.39,27.78-16.08a20.59,20.59,0,0,1,23.89-4.13c15.85,7.84,28.26,10.51,31.54,5.86s-3.39-15.45-16.08-27.76a20.6,20.6,0,0,1-4.11-23.9C1488.94,2160.55,1491.61,2148.15,1486.93,2144.84Z"/><path class="cls-1" d="M535.93,3775.84c-4.66-3.28-15.46,3.4-27.75,16.07a20.59,20.59,0,0,1-23.87,4.12c-15.84-7.82-28.25-10.5-31.53-5.85s3.39,15.46,16.07,27.75a20.59,20.59,0,0,1,4.11,23.88c-7.83,15.84-10.52,28.27-5.87,31.56s15.5-3.39,27.78-16.08a20.59,20.59,0,0,1,23.89-4.13c15.85,7.84,28.26,10.51,31.54,5.86s-3.39-15.45-16.08-27.76a20.6,20.6,0,0,1-4.11-23.9C537.94,3791.55,540.61,3779.15,535.93,3775.84Z"/><circle class="cls-1" cx="140.62" cy="1632.85" r="16.74"/><circle class="cls-1" cx="270.62" cy="1960.85" r="8.76" transform="translate(-1307.27 765.68) rotate(-45)"/><circle class="cls-1" cx="1137.56" cy="703.78" r="17.76" transform="translate(-189.66 870.61) rotate(-38.91)"/></g></g></svg>